<svg width="15" height="18" viewBox="0 0 15 18" fill="none" xmlns="http://www.w3.org/2000/svg">
<path d="M14.6903 14.3245C14.6346 14.2902 14.2152 14.0112 13.7953 13.1673C13.0241 11.6175 12.8622 9.43439 12.8622 7.87588C12.8622 7.86909 12.8621 7.86238 12.8618 7.85563C12.8534 5.79586 11.5544 4.02026 9.69564 3.22358V2.00517C9.69564 0.899508 8.74987 0 7.58736 0H7.41263C6.25012 0 5.30435 0.899508 5.30435 2.00517V3.22351C3.43933 4.02275 2.13778 5.80743 2.13778 7.87588C2.13778 9.43439 1.97591 11.6175 1.20472 13.1673C0.784815 14.0112 0.365432 14.2901 0.309672 14.3245C0.0748593 14.4277 -0.0409182 14.6661 0.0131014 14.9076C0.0676393 15.1516 0.307784 15.3198 0.570033 15.3198H4.64083C4.66356 16.8013 5.937 18 7.50001 18C9.06303 18 10.3365 16.8013 10.3592 15.3198H14.43C14.6922 15.3198 14.9324 15.1516 14.9869 14.9076C15.0409 14.6661 14.9251 14.4277 14.6903 14.3245ZM6.41514 2.00517C6.41514 1.48201 6.86263 1.05641 7.41267 1.05641H7.58739C8.13744 1.05641 8.58492 1.48201 8.58492 2.00517V2.88116C8.23437 2.81236 7.87149 2.77615 7.49987 2.77615C7.12836 2.77615 6.76558 2.81232 6.41518 2.88105V2.00517H6.41514ZM7.50001 16.9436C6.54947 16.9436 5.77413 16.2188 5.75158 15.3198H9.24841C9.2259 16.2187 8.45056 16.9436 7.50001 16.9436ZM9.73633 14.2633C9.73622 14.2633 1.83573 14.2633 1.83573 14.2633C1.93181 14.1211 2.0296 13.9602 2.12679 13.7782C2.87114 12.3845 3.24857 10.3987 3.24857 7.87588C3.24857 5.64637 5.1557 3.83256 7.49983 3.83256C9.84396 3.83256 11.7511 5.64637 11.7511 7.87764C11.7511 7.88414 11.7512 7.89061 11.7515 7.89708C11.7536 10.4098 12.131 12.3885 12.8732 13.7782C12.9704 13.9602 13.0682 14.1211 13.1643 14.2633H9.73633Z" fill="black"/>
</svg>
