<?xml version="1.0" encoding="utf-8"?><svg viewBox="0 0 16 16" xmlns="http://www.w3.org/2000/svg" xmlns:xlink="http://www.w3.org/1999/xlink"><style>:root>svg{display:none}:root>svg:target{display:block}</style><svg viewBox="0 0 16 16" id="facebook" xmlns="http://www.w3.org/2000/svg"><path fill-rule="evenodd" clip-rule="evenodd" d="M0 8a8 8 0 1116 0A8 8 0 010 8zm9.1-2.667h.9v-2H8.686c-1.399 0-2.02.616-2.02 1.795v1.539H5.334V8h1.334v4.667h2V8H9.86L10 6.667H8.667v-.815c0-.371.074-.519.433-.519z"/></svg><svg viewBox="0 0 16 16" id="linkedin" xmlns="http://www.w3.org/2000/svg"><path fill-rule="evenodd" clip-rule="evenodd" d="M0 8a8 8 0 1116 0A8 8 0 010 8zm6.667 2.667v-4H5.333v4h1.334zM6 6.073a.736.736 0 01-.733-.74c0-.408.328-.739.733-.739.405 0 .733.331.733.74 0 .408-.328.739-.733.739zm4.001 4.594h1.332v-2.24c0-2.189-2.085-2.109-2.666-1.032v-.728H7.333v4h1.334V8.759c0-1.148 1.334-1.254 1.334 0v1.908z"/></svg><svg viewBox="0 0 16 16" id="twitter" xmlns="http://www.w3.org/2000/svg"><path fill-rule="evenodd" clip-rule="evenodd" d="M0 8a8 8 0 1116 0A8 8 0 010 8zm6.601 4.126c3.556 0 5.565-3.003 5.443-5.696.375-.27.7-.607.955-.993a3.82 3.82 0 01-1.099.302c.395-.237.699-.612.842-1.059-.37.22-.78.38-1.216.465a1.917 1.917 0 00-3.263 1.747A5.435 5.435 0 014.316 4.89c-.501.86-.26 1.986.593 2.556a1.91 1.91 0 01-.868-.239A1.918 1.918 0 005.577 9.11a1.92 1.92 0 01-.865.033 1.92 1.92 0 001.79 1.33 3.852 3.852 0 01-2.835.792c.847.544 1.853.861 2.934.861z"/></svg></svg>