<svg width="20" height="15" viewBox="0 0 20 15" fill="none" xmlns="http://www.w3.org/2000/svg">
<path d="M20 0L19.3808 1.66667H17.7733L14.8783 11.6667H3.84583L0 2.5H14.01L13.54 4.16667H2.50667L4.95417 10H13.6442L16.5042 0H20V0ZM7.08333 12.5C6.39333 12.5 5.83333 13.06 5.83333 13.75C5.83333 14.4408 6.39333 15 7.08333 15C7.77333 15 8.33333 14.4408 8.33333 13.75C8.33333 13.06 7.77333 12.5 7.08333 12.5ZM12.8333 6.66667L11.25 12.5C10.56 12.5 10 13.0592 10 13.75C10 14.4408 10.56 15 11.25 15C11.94 15 12.5 14.4408 12.5 13.75C12.5 13.06 11.94 12.5 11.25 12.5L12.8333 6.66667Z" fill="white"/>
</svg>
