<svg width="27" height="25" viewBox="0 0 27 25" fill="none" xmlns="http://www.w3.org/2000/svg">
<path d="M13.5 9.35108C13.7633 8.07835 15.2404 2.27265 19.5548 2.27265C22.0522 2.27265 24.75 4.03515 24.75 7.95789C24.75 12.3977 20.6696 17.5829 13.5 22.3091C6.33037 17.5829 2.25 12.3977 2.25 7.95789C2.25 3.99879 4.91512 2.27037 7.39913 2.27037C11.8125 2.27037 13.1873 8.0954 13.5 9.35108ZM0 7.95789C0 12.5806 3.4425 18.7318 13.5 25C23.5575 18.7318 27 12.5806 27 7.95789C27 -1.08986 16.146 -2.30123 13.5 3.71129C10.8698 -2.26828 0 -1.141 0 7.95789Z" fill="black"/>
</svg>
