<svg width="14" height="10" viewBox="0 0 14 10" fill="none" xmlns="http://www.w3.org/2000/svg">
<path d="M12.7695 0H1.23047C0.550621 0 0 0.562833 0 1.25V8.75C0 9.44125 0.554668 10 1.23047 10H12.7695C13.4437 10 14 9.44361 14 8.75V1.25C14 0.564056 13.4516 0 12.7695 0ZM12.5972 0.833333C12.3458 1.08736 8.01946 5.45925 7.87008 5.61019C7.63766 5.84631 7.32867 5.97631 7 5.97631C6.67133 5.97631 6.36234 5.84628 6.12916 5.60942C6.0287 5.50789 1.75008 1.18428 1.40279 0.833333H12.5972ZM0.820312 8.58039V1.42014L4.3651 5.00222L0.820312 8.58039ZM1.40331 9.16667L4.9467 5.58992L5.54988 6.19944C5.93723 6.59294 6.45222 6.80964 7 6.80964C7.54778 6.80964 8.06277 6.59294 8.44936 6.20022L9.0533 5.58992L12.5967 9.16667H1.40331ZM13.1797 8.58039L9.6349 5.00222L13.1797 1.42014V8.58039Z" fill="black"/>
</svg>
