<svg width="15" height="15" viewBox="0 0 15 15" fill="none" xmlns="http://www.w3.org/2000/svg">
<path d="M7.5 0C3.36457 0 0 3.36457 0 7.5C0 11.6354 3.36457 15 7.5 15C11.6354 15 15 11.6354 15 7.5C15 3.36457 11.6354 0 7.5 0ZM7.5 14.375C3.7091 14.375 0.62499 11.2909 0.62499 7.5C0.62499 3.7091 3.7091 0.62499 7.5 0.62499C11.2909 0.62499 14.375 3.7091 14.375 7.5C14.375 11.2909 11.2909 14.375 7.5 14.375Z" fill="black"/>
<path d="M11.3416 4.46653L5.93752 9.87061L3.03346 6.96655C2.91138 6.84447 2.71363 6.84447 2.59158 6.96655C2.4695 7.08863 2.4695 7.28639 2.59158 7.40844L5.71659 10.5334C5.77761 10.5945 5.85759 10.625 5.93755 10.625C6.0175 10.625 6.09745 10.5945 6.1585 10.5334L11.7835 4.90845C11.9056 4.78637 11.9056 4.58861 11.7835 4.46656C11.6614 4.34448 11.4636 4.34448 11.3416 4.46653Z" fill="black"/>
</svg>
