<svg width="24" height="22" viewBox="0 0 24 22" fill="none" xmlns="http://www.w3.org/2000/svg">
<path d="M11.7267 20.0507L12 20.2291L12.2733 20.0507C15.4901 17.9514 18.0355 15.7366 19.7817 13.5336C21.5245 11.3349 22.5 9.11026 22.5 7.00296C22.5 5.1529 21.8531 3.76482 20.8648 2.84157C19.8849 1.92617 18.6038 1.49995 17.382 1.49995C15.2043 1.49995 13.7844 2.95959 12.9101 4.44022C12.5126 5.11341 12.2129 5.81388 11.9928 6.43282C11.7748 5.81741 11.48 5.11833 11.0869 4.44658C10.217 2.95972 8.7972 1.49795 6.577 1.49795C5.36259 1.49795 4.09066 1.91583 3.11813 2.82955C2.1375 3.7509 1.5 5.14002 1.5 7.00296C1.5 9.11026 2.47552 11.3349 4.21829 13.5336C5.96452 15.7366 8.50988 17.9514 11.7267 20.0507ZM11.5431 3.46897L11.9999 4.49711L12.4569 3.46905C13.5132 1.09274 16.2396 0.0904666 18.7737 0.652694C21.2637 1.20515 23.5 3.2693 23.5 7.00296C23.5 10.7743 20.6781 15.9885 12 21.4115C3.32188 15.9885 0.5 10.7743 0.5 7.00296C0.5 3.24657 2.73978 1.19067 5.22989 0.647058C7.76619 0.0933616 10.4934 1.10663 11.5431 3.46897Z" stroke="#5AC2EF"/>
</svg>
