<svg width="10" height="12" viewBox="0 0 10 12" fill="none" xmlns="http://www.w3.org/2000/svg">
<path d="M5 0C3.3458 0 2 1.4194 2 3.16406C2 4.90873 3.3458 6.32813 5 6.32813C6.6542 6.32813 8 4.90873 8 3.16406C8 1.4194 6.6542 0 5 0Z" fill="#9C9898"/>
<path d="M8.73258 8.3952C7.91124 7.51563 6.82242 7.03125 5.66667 7.03125H4.33333C3.1776 7.03125 2.08876 7.51563 1.26742 8.3952C0.450111 9.27045 0 10.4258 0 11.6484C0 11.8426 0.149244 12 0.333333 12H9.66667C9.85076 12 10 11.8426 10 11.6484C10 10.4258 9.54989 9.27045 8.73258 8.3952Z" fill="#9C9898"/>
</svg>
