<svg width="20" height="13" viewBox="0 0 20 13" fill="none" xmlns="http://www.w3.org/2000/svg">
<path d="M19.6552 12.86H0.344844C0.154414 12.86 0 12.7085 0 12.5216V9.47578H20V12.5216C20 12.7085 19.8456 12.86 19.6552 12.86Z" fill="#73AF00"/>
<path d="M19.6552 0H0.344844C0.154414 0 0 0.151545 0 0.338437V9.47578H20V0.338437C20 0.151545 19.8456 0 19.6552 0Z" fill="#FF4B55"/>
<path d="M2.75863 12.86H0.344844C0.154414 12.86 0 12.7085 0 12.5216V0.338437C0 0.151545 0.154414 0 0.344844 0H2.75863V12.86Z" fill="#F5F5F5"/>
<path d="M0.344971 12.2979H0.466924V11.9625H0.344971V12.2979ZM1.31833 12.2979H1.44032V11.9625H1.31833V12.2979ZM2.29231 12.2979H2.41372V11.9625H2.29231V12.2979ZM0.832275 11.3986H0.953018V11.119H0.832275V11.3986ZM1.80622 11.3986H1.92763V11.119H1.80622V11.3986ZM0.344971 10.6693H0.466924V10.3339H0.344971V10.6693ZM1.31833 10.6693H1.44032V10.3339H1.31833V10.6693ZM2.29231 10.6693H2.41372V10.3339H2.29231V10.6693ZM0.589541 11.119H0.710283V10.837H0.832275V10.5574H0.953018V10.837H1.07563V11.119H1.19638V11.3986H1.07563V11.6805H0.953018V11.9624H0.832275V11.6805H0.710283V11.3986H0.589541V11.119V11.119ZM1.56294 11.119H1.68489V10.837H1.80626V10.5574H1.92767V10.837H2.04903V11.119H2.17099V11.3986H2.04903V11.6805H1.92767V11.9624H1.80626V11.6805H1.68489V11.3986H1.56294V11.119V11.119ZM1.80622 9.99598V10.2755H1.68368V10.5575H1.56294V10.837H1.44032V11.1191H1.31833V10.837H1.19634V10.5575H1.0756V10.2755H0.952979V9.99598H0.832236V10.2755H0.710244V10.5575H0.589502V10.837H0.466885V11.1191H0.344971V11.3986H0.466924V11.6805H0.589541V11.9625H0.710283V12.242H0.832275V12.5216H0.954268V12.242H1.07563V11.9625H1.19638V11.6805H1.31837V11.3986H1.44036V11.6805H1.56298V11.9625H1.68493V12.242H1.8063V12.5216H1.92771V12.242H2.04907V11.9625H2.17103V11.6805H2.29302V11.3986H2.41376V11.1191H2.29235V10.837H2.17103V10.5575H2.04907V10.2755H1.92771V9.99598H1.80622ZM2.10778 9.7165H2.16849V9.60471H2.22978V9.7165H2.29106V9.82825H2.22978V9.9425H2.16849V9.82825H2.10778V9.7165ZM2.10778 9.32508V9.49043H2.04774V9.66057H1.98646V9.88422H2.04774V10.0519H2.10778V10.2196H2.2911V10.0519H2.35181V9.88422H2.41185V9.66057H2.35181V9.49043H2.2911V9.32508H2.10778ZM0.466924 9.71401H0.528213V9.60226H0.589502V9.71401H0.648916V9.82825H0.589502V9.94004H0.528213V9.82825H0.466924V9.71401V9.71401ZM0.466924 9.32263V9.49039H0.406221V9.65808H0.344971V9.88415H0.406221V10.0518H0.466924V10.2195H0.648955V10.0518H0.710244V9.88415H0.769736V9.65808H0.710244V9.49039H0.648955V9.32263H0.466924V9.32263ZM1.13626 9.71401H1.1963V9.60226H1.25825V9.71401H1.31829V9.82825H1.25825V9.94004H1.1963V9.82825H1.13626V9.71401ZM1.44032 9.71401H1.50161V9.60226H1.5629V9.71401H1.62294V9.82825H1.5629V9.94004H1.50161V9.82825H1.44032V9.71401ZM1.44032 9.32263V9.49039H1.31833V9.32263H1.1363V9.49039H1.0756V9.65808H1.01431V9.88415H1.0756V10.0518H1.1363V10.2195H1.31833V10.0518H1.44032V10.2195H1.62298V10.0518H1.68489V9.88415H1.74438V9.65808H1.68489V9.49039H1.62298V9.32263H1.44032V9.32263ZM0.344971 9.20839H0.466924V8.87298H0.344971V9.20839ZM1.31833 9.20839H1.44032V8.87298H1.31833V9.20839ZM2.29231 9.20839H2.41372V8.87298H2.29231V9.20839ZM0.344971 7.8058H0.466924V7.58222H0.344971V7.8058ZM2.29231 7.8058H2.41372V7.58222H2.29231V7.8058ZM1.31833 7.02066H1.44032V6.74111H1.31833V7.02066ZM0.344971 6.26232V6.43V6.43242V6.6001H0.466924V6.43242V6.43V6.26232H0.344971ZM1.01427 6.26232V6.43V6.43242V6.6001H1.13626V6.43242V6.43V6.26232H1.01427ZM1.62298 6.26232V6.43V6.43242V6.6001H1.74435V6.43242V6.43V6.26232H1.62298ZM2.29231 6.26232V6.43V6.43242V6.6001H2.41372V6.43242V6.43V6.26232H2.29231ZM1.50161 6.06546V6.17725H1.44032V6.26232H1.31833V6.17725H1.25829V6.06546H1.1363V6.23314H1.19634V6.31821H1.25829V6.43V6.43242V6.54183H1.19634V6.6269H1.1363V6.79459H1.25829V6.68283H1.31833V6.60014H1.44032V6.68283H1.50161V6.79459H1.62298V6.6269H1.56294V6.54183H1.50165V6.43242V6.43V6.31821H1.56294V6.23314H1.62298V6.06546H1.50161ZM1.31833 6.12128H1.44032V5.84172H1.31833V6.12128ZM0.344971 5.28021H0.466924V5.05663H0.344971V5.28021ZM2.29231 5.28021H2.41372V5.05663H2.29231V5.28021ZM0.344971 3.98948H0.466924V3.65166H0.344971V3.98948ZM1.31833 3.98948H1.44032V3.65166H1.31833V3.98948ZM2.29231 3.98948H2.41372V3.65166H2.29231V3.98948ZM0.832275 6.43487V6.42759V6.31818H0.953018V6.12369H1.07563V5.89762H1.25829V5.63271H1.31833V5.50386H1.37966H1.44032V5.63026H1.50161V5.89766H1.68485V6.00945V6.12369H1.80622V6.31818H1.92763V6.43V6.54179H1.80622V6.74111H1.68485V6.8529V6.96469H1.50161V7.22967H1.44032V7.35607H1.37966H1.31833V7.22967H1.25829V6.96469H1.07563V6.74103H0.953018V6.54172H0.832275V6.43487V6.43487ZM1.80622 3.31376V3.59569H1.68368V3.87524H1.56294V4.15728H1.44032V4.38086V4.4368H1.31833V4.15725H1.19634V3.8752H1.0756V3.59565H0.952979V3.31372H0.832236V3.59565H0.710244V3.8752H0.588252V4.15725H0.466885V4.38083V4.43676H0.344971V4.71869H0.466924V5.00062H0.588291V5.28017H0.710283V5.55976H0.832275V5.28017H0.953018V5.00062H1.07563V4.71869H0.953018V4.38079H1.07563V4.43672V4.60686H1.19638V5.05659H1.25833V5.33369L1.07567 5.3361V5.55976H0.953057V5.72744H0.832314V6.00937H0.710322V5.72744H0.58833V5.55976H0.466963V5.392H0.344971V5.89758H0.466924V6.12365H0.588291V6.31814H0.710283V6.43V6.43242V6.54183H0.588291V6.74114H0.466924V6.9648H0.344971V7.47039H0.466924V7.30021H0.588291V7.13253H0.710283V6.85297H0.832275V7.13253H0.953018V7.30021H1.07563V7.52628L1.25829 7.5287V7.8058H1.19634V8.25553H1.0756V8.42321V8.4816H0.952979V8.14128H1.0756V7.86173H0.952979V7.58218H0.832236V7.30013H0.710244V7.58218H0.588252V7.86173H0.466885V8.14128H0.344971V8.42321H0.466924V8.4816V8.70276H0.589541V8.98481H0.710283V9.26673H0.832275V9.54629H0.953018V9.26673H1.07563V8.98481H1.19638V8.70276H1.31837V8.42321H1.44036V8.4816V8.70276H1.56298V8.98481H1.68493V9.26673H1.8063V9.54629H1.92771V9.26673H2.04907V8.98481H2.17103V8.70276H2.29235V8.42321H2.41372V8.14128H2.29231V7.86173H2.17099V7.58218H2.04903V7.30013H1.92767V7.58218H1.80626V7.86173H1.68372V8.14128H1.80626V8.42321V8.4816H1.68372V8.42321V8.25553H1.56298V7.8058H1.5456H1.50169V7.52624H1.5456H1.57845H1.62302H1.68493V7.30017H1.8063V7.13249H1.92771V6.85294H2.04907V7.13249H2.17103V7.30017H2.29302V7.47035H2.41376V6.96476H2.29298V6.74111H2.17099V6.54179H2.04903V6.43242V6.43V6.31821H2.17099V6.12373H2.29298V5.89766H2.41376V5.39207H2.29298V5.55983H2.17099V5.72752H2.04903V6.00945H1.92767V5.72752H1.80626V5.55983H1.68489V5.33618H1.62298H1.57841H1.54556H1.50165V5.05663H1.54556H1.56294V4.6069H1.68368V4.43676V4.38083H1.80622V4.43676V4.71869H1.68368V5.00062H1.80622V5.28017H1.92763V5.55976H2.04899V5.28017H2.17095V5.00062H2.29228V4.71869H2.41376V4.43676H2.29235V4.15721H2.17103V3.87516H2.04907V3.59561H1.92771V3.31368H1.80622V3.31376ZM0.466924 3.03421H0.527041V2.92242H0.589541V3.03421H0.648955V3.146H0.589541V3.26024H0.527041V3.146H0.466924V3.03421V3.03421ZM0.466924 2.80813H0.406221V2.97827H0.344971V3.20193H0.406221V3.37207H0.466924V3.53983H0.648955V3.37207H0.710244V3.20193H0.769736V2.97827H0.710244V2.80813H0.648955V2.64286H0.466924C0.466924 2.64286 0.466924 2.80813 0.466924 2.80813ZM1.13626 3.03421H1.1963V2.92242H1.25825V3.03421H1.31829V3.146H1.25825V3.26024H1.1963V3.146H1.13626V3.03421ZM1.44032 3.03421H1.50161V2.92242H1.5629V3.03421H1.62294V3.146H1.5629V3.26024H1.50161V3.146H1.44032V3.03421ZM1.13626 2.80813H1.07556V2.97827H1.01427V3.20193H1.07556V3.37207H1.13626V3.53983H1.31829V3.37207H1.44028V3.53983H1.62294V3.37207H1.68485V3.20193H1.74435V2.97827H1.68485V2.80813H1.62294V2.64286H1.44028V2.80813H1.31829V2.64286H1.13626V2.80813ZM2.10778 3.03179H2.16849V2.92238H2.22978V3.03179H2.29106V3.14604H2.22978V3.25779H2.16849V3.14604H2.10778V3.03179ZM2.10778 2.64045V2.80813H2.04774V2.97827H1.98646V3.20193H2.04774V3.36962H2.10778V3.53738H2.2911V3.36962H2.35181V3.20193H2.41185V2.97827H2.35181V2.80813H2.2911V2.64045H2.10778ZM0.344971 2.52862H0.466924V2.19317H0.344971V2.52862ZM1.31833 2.52862H1.44032V2.19317H1.31833V2.52862ZM2.29231 2.52862H2.41372V2.19317H2.29231V2.52862ZM0.832275 1.74348H0.953018V1.46144H0.832275V1.74348ZM1.80622 1.74348H1.92763V1.46144H1.80622V1.74348ZM0.344971 0.899997H0.466924V0.56455H0.344971V0.899997ZM1.31833 0.899997H1.44032V0.56455H1.31833V0.899997ZM2.29231 0.899997H2.41372V0.56455H2.29231V0.899997ZM0.589541 1.46148H0.710283V1.18193H0.832275V0.899997H0.953018V1.18193H1.07563V1.46148H1.19638V1.74352H1.07563V2.02307H0.953018V2.305H0.832275V2.02307H0.710283V1.74352H0.589541V1.46148V1.46148ZM1.56294 1.46148H1.68489V1.18193H1.80626V0.899997H1.92767V1.18193H2.04903V1.46148H2.17099V1.74352H2.04903V2.02307H1.92767V2.305H1.80626V2.02307H1.68489V1.74352H1.56294V1.46148V1.46148ZM1.80622 0.33844V0.620484H1.68485V0.900036H1.5629V1.18196H1.44028V1.46152H1.31829V1.18196H1.1963V0.900036H1.07556V0.620484H0.954229V0.33844H0.832236V0.620484H0.710244V0.900036H0.589502V1.18196H0.466885V1.46152H0.344971V1.74356H0.466924V2.02311H0.589541V2.30504H0.710283V2.58697H0.832275V2.86652H0.953018V2.58697H1.07563V2.30504H1.19638V2.02311H1.31837V1.74356H1.44036V2.02311H1.56298V2.30504H1.68372V2.58697H1.80626V2.86652H1.92767V2.58697H2.04903V2.30504H2.17099V2.02311H2.29231V1.74356H2.41372V1.46152H2.29294V1.18196H2.17095V0.900036H2.04899V0.620484H1.92763V0.33844C1.92763 0.33844 1.80622 0.33844 1.80622 0.33844Z" fill="#FF4B55"/>
</svg>
