<svg width="20" height="13" viewBox="0 0 20 13" fill="none" xmlns="http://www.w3.org/2000/svg">
<path d="M19.6551 0H0.344843C0.154414 0 0 0.151507 0 0.338399V12.5216C0 12.7085 0.154414 12.86 0.344843 12.86H19.6552C19.8456 12.86 20 12.7085 20 12.5216V0.338399C20 0.151507 19.8455 0 19.6551 0Z" fill="#82C3D2"/>
<path d="M2.32485 1.54004C2.29364 1.41034 2.28587 1.36254 2.34516 1.30438C2.37407 1.27601 2.37407 1.23005 2.34516 1.20168C2.31626 1.17331 2.26942 1.17331 2.24052 1.20168C2.12052 1.31949 2.14915 1.44174 2.1802 1.5712C2.08559 1.54088 1.98747 1.56338 1.93489 1.62848C1.9088 1.66095 1.85833 1.75204 1.9529 1.89749C1.97489 1.93126 2.02036 1.94119 2.05509 1.9198C2.08958 1.89822 2.09962 1.85325 2.07762 1.81951C2.04216 1.76473 2.0411 1.73095 2.05102 1.71861C2.06274 1.704 2.09907 1.6963 2.13712 1.70952C2.16169 1.71788 2.2188 1.74683 2.2188 1.83423C2.2188 1.90404 2.18591 1.96803 2.12856 2.00959C2.0711 2.0513 1.99673 2.06307 1.92505 2.04121C1.83653 2.01468 1.7747 1.92318 1.7747 1.81863C1.7747 1.74384 1.79102 1.66824 1.82102 1.60199C1.82579 1.59221 1.93891 1.36223 1.96805 1.27651C2.02567 1.10695 1.96712 1.02169 1.92716 0.98607C1.87368 0.938264 1.79552 0.926341 1.72825 0.955286C1.71802 0.959733 1.70958 0.966174 1.70071 0.972154C1.69184 0.966135 1.68337 0.959733 1.67317 0.955286C1.60595 0.926341 1.52782 0.938264 1.47427 0.98607C1.43431 1.02169 1.37575 1.10698 1.43337 1.27651C1.46251 1.36223 1.57559 1.59221 1.57934 1.59988C1.61032 1.66827 1.62669 1.74387 1.62669 1.81867C1.62669 1.92325 1.56489 2.01472 1.47634 2.04125C1.40438 2.06307 1.33024 2.05145 1.27282 2.00962C1.21548 1.96803 1.18259 1.90408 1.18259 1.83427C1.18259 1.74686 1.2397 1.71796 1.26427 1.70956C1.30243 1.69637 1.33856 1.704 1.35036 1.71865C1.36028 1.73099 1.35923 1.76477 1.32376 1.81955C1.30177 1.85333 1.31181 1.89829 1.3463 1.91984C1.38106 1.94142 1.42669 1.93134 1.44849 1.89753C1.54302 1.75208 1.49259 1.66103 1.46649 1.62852C1.41388 1.56342 1.31579 1.54092 1.22118 1.57124C1.25227 1.44186 1.28087 1.31952 1.16087 1.20171C1.13196 1.17335 1.08513 1.17335 1.05622 1.20171C1.02731 1.23008 1.02731 1.27605 1.05622 1.30442C1.11548 1.36258 1.10778 1.41038 1.07653 1.54008C1.05778 1.61778 1.0345 1.7147 1.0345 1.83416C1.0345 1.91363 1.06298 1.98965 1.11087 2.0521H1.10849C1.06759 2.0521 1.03446 2.08457 1.03446 2.12475C1.03446 2.16489 1.06755 2.1974 1.10849 2.1974H1.11087C1.06298 2.25985 1.0345 2.33583 1.0345 2.4153C1.0345 2.53476 1.05778 2.63168 1.07649 2.70942C1.1077 2.83912 1.11548 2.88692 1.05618 2.94508C1.02728 2.97345 1.02728 3.01942 1.05618 3.04778C1.07063 3.06197 1.08958 3.06906 1.10853 3.06906C1.12743 3.06906 1.14642 3.06197 1.16087 3.04778C1.28087 2.92998 1.25224 2.80768 1.22118 2.67826C1.31579 2.70847 1.41392 2.68608 1.46649 2.62098C1.49259 2.58851 1.54306 2.49742 1.44849 2.35197C1.42657 2.3182 1.38083 2.30815 1.3463 2.32966C1.31181 2.35124 1.30177 2.39621 1.32376 2.42995C1.35923 2.48473 1.36028 2.51851 1.35036 2.53085C1.3386 2.5453 1.30243 2.55297 1.26427 2.53994C1.2397 2.53158 1.18259 2.50264 1.18259 2.41523C1.18259 2.34542 1.21548 2.28143 1.27282 2.23987C1.33028 2.19816 1.40458 2.18624 1.47634 2.20825C1.56485 2.23478 1.62669 2.32629 1.62669 2.43083C1.62669 2.50563 1.61036 2.58123 1.57934 2.64962L1.09454 3.72002C1.0547 3.80797 1.03446 3.90151 1.03446 3.99781C1.03446 4.12175 1.09188 4.23492 1.18228 4.30401C1.09192 4.37309 1.03446 4.48626 1.03446 4.6102C1.03446 4.70654 1.05474 4.80004 1.09454 4.88799L1.57927 5.95831C1.61024 6.02671 1.62661 6.10231 1.62661 6.1771C1.62661 6.28168 1.56481 6.37316 1.47626 6.39969C1.40431 6.42169 1.33017 6.40988 1.27274 6.36806C1.2154 6.32646 1.18251 6.26252 1.18251 6.19271C1.18251 6.1053 1.23962 6.07639 1.26419 6.068C1.30235 6.05492 1.33849 6.06244 1.35028 6.07708C1.3602 6.08943 1.35915 6.1232 1.32368 6.17798C1.30169 6.21176 1.31173 6.25673 1.34622 6.27827C1.38099 6.29986 1.42661 6.28989 1.44841 6.25596C1.54294 6.11051 1.49251 6.01946 1.46642 5.98695C1.4138 5.92186 1.31571 5.89943 1.2211 5.92968C1.2522 5.80029 1.28079 5.67796 1.16079 5.56015C1.13188 5.53178 1.08505 5.53178 1.05614 5.56015C1.02724 5.58852 1.02724 5.63448 1.05614 5.66285C1.1154 5.72101 1.1077 5.76882 1.07645 5.89851C1.05774 5.97626 1.03446 6.07317 1.03446 6.19263C1.03446 6.2721 1.06294 6.34812 1.11083 6.41057H1.10845C1.06755 6.41057 1.03442 6.44304 1.03442 6.48322C1.03442 6.5234 1.06751 6.55587 1.10845 6.55587H1.11083C1.0629 6.61832 1.03446 6.6943 1.03446 6.77381C1.03446 6.89327 1.05774 6.99019 1.07645 7.06793C1.10767 7.19763 1.11544 7.24543 1.05614 7.30359C1.02724 7.33196 1.02724 7.37793 1.05614 7.40629C1.0706 7.42048 1.08954 7.42757 1.10849 7.42757C1.12739 7.42757 1.14638 7.42048 1.16083 7.40629C1.28083 7.28849 1.2522 7.16619 1.22114 7.03677C1.31575 7.06698 1.41388 7.04459 1.46645 6.97949C1.49255 6.94702 1.54302 6.85593 1.44845 6.71048C1.42653 6.67671 1.38079 6.66666 1.34626 6.68817C1.31177 6.70975 1.30173 6.75472 1.32372 6.78846C1.35919 6.84324 1.36024 6.87702 1.35032 6.88936C1.33856 6.90397 1.30239 6.91167 1.26423 6.89845C1.23966 6.89009 1.18255 6.86115 1.18255 6.77374C1.18255 6.70393 1.21544 6.63994 1.27278 6.59839C1.33024 6.55667 1.40454 6.54475 1.4763 6.56676C1.56481 6.59329 1.62665 6.6848 1.62665 6.78934C1.62665 6.86414 1.61032 6.93974 1.57931 7.00813L1.09454 8.07865C1.0547 8.16659 1.03446 8.26013 1.03446 8.35643C1.03446 8.48038 1.09188 8.59355 1.18228 8.66263C1.09192 8.73171 1.03446 8.84488 1.03446 8.96883C1.03446 9.06517 1.05474 9.15867 1.09454 9.24661L1.57927 10.3169C1.61024 10.3853 1.62661 10.4609 1.62661 10.5357C1.62661 10.6403 1.56481 10.7318 1.47626 10.7583C1.40431 10.7803 1.33017 10.7684 1.27274 10.7267C1.2154 10.6851 1.18251 10.6211 1.18251 10.5513C1.18251 10.4639 1.23962 10.435 1.26419 10.4266C1.30235 10.4135 1.33849 10.4211 1.35028 10.4357C1.3602 10.4481 1.35915 10.4818 1.32368 10.5366C1.30169 10.5704 1.31173 10.6153 1.34622 10.6369C1.38099 10.6585 1.42661 10.6485 1.44841 10.6146C1.54294 10.4691 1.49251 10.3781 1.46642 10.3456C1.4138 10.2803 1.31571 10.258 1.2211 10.2883C1.2522 10.1589 1.28079 10.0366 1.16079 9.91877C1.13188 9.8904 1.08505 9.8904 1.05614 9.91877C1.02724 9.94714 1.02724 9.99311 1.05614 10.0215C1.1154 10.0796 1.1077 10.1274 1.07645 10.2571C1.05774 10.3349 1.03446 10.4318 1.03446 10.5512C1.03446 10.6651 1.09005 10.7735 1.18298 10.8418C1.09005 10.9101 1.03446 11.0185 1.03446 11.1324C1.03446 11.2519 1.05774 11.3488 1.07645 11.4265C1.10767 11.5562 1.11544 11.604 1.05614 11.6622C1.02724 11.6905 1.02724 11.7365 1.05614 11.7649C1.0706 11.7791 1.08954 11.7862 1.10849 11.7862C1.12739 11.7862 1.14638 11.7791 1.16083 11.7649C1.28083 11.6471 1.2522 11.5248 1.22114 11.3954C1.31575 11.4256 1.41388 11.4032 1.46645 11.3381C1.49255 11.3056 1.54302 11.2145 1.44845 11.0691C1.42653 11.0353 1.38079 11.0254 1.34626 11.0468C1.31177 11.0683 1.30173 11.1133 1.32372 11.147C1.35919 11.2018 1.36024 11.2356 1.35032 11.2479C1.33856 11.2626 1.30239 11.2701 1.26423 11.257C1.23966 11.2487 1.18255 11.2197 1.18255 11.1323C1.18255 11.0625 1.21544 10.9985 1.27278 10.957C1.33024 10.9153 1.40454 10.9035 1.4763 10.9253C1.56481 10.9519 1.62665 11.0434 1.62665 11.1479C1.62665 11.2227 1.61032 11.2983 1.58032 11.3646C1.57556 11.3743 1.46243 11.6043 1.43329 11.69C1.37567 11.8596 1.43423 11.9449 1.47419 11.9805C1.50837 12.011 1.55239 12.027 1.59739 12.027C1.6229 12.027 1.64876 12.0218 1.67313 12.0113C1.68337 12.0069 1.69181 12.0004 1.70067 11.9944C1.70954 12.0005 1.71802 12.0069 1.72821 12.0113C1.75255 12.0218 1.77845 12.027 1.80395 12.027C1.84884 12.027 1.89294 12.011 1.92716 11.9805C1.96712 11.9449 2.02567 11.8596 1.96805 11.69C1.93891 11.6043 1.82583 11.3743 1.82208 11.3667C1.7911 11.2983 1.77473 11.2227 1.77473 11.1479C1.77473 11.0433 1.83653 10.9518 1.92509 10.9253C1.99708 10.9035 2.07118 10.9152 2.1286 10.9569C2.18594 10.9985 2.21884 11.0625 2.21884 11.1323C2.21884 11.2197 2.16173 11.2486 2.13716 11.257C2.09915 11.2701 2.06274 11.2626 2.05106 11.2479C2.04114 11.2356 2.0422 11.2018 2.07766 11.147C2.09966 11.1132 2.08962 11.0683 2.05512 11.0467C2.02055 11.0254 1.97497 11.0354 1.95294 11.069C1.85841 11.2145 1.90884 11.3055 1.93493 11.338C1.98755 11.4031 2.08563 11.4256 2.18024 11.3953C2.14915 11.5247 2.12055 11.647 2.24055 11.7648C2.25501 11.779 2.27395 11.7861 2.2929 11.7861C2.31184 11.7861 2.33079 11.779 2.34524 11.7648C2.37415 11.7365 2.37415 11.6905 2.34524 11.6621C2.28598 11.604 2.29368 11.5562 2.32493 11.4265C2.34364 11.3487 2.36692 11.2518 2.36692 11.1324C2.36692 11.0185 2.31134 10.9101 2.21841 10.8418C2.31134 10.7735 2.36692 10.6651 2.36692 10.5512C2.36692 10.4317 2.34364 10.3348 2.32493 10.2571C2.29372 10.1274 2.28594 10.0796 2.34524 10.0214C2.37415 9.99303 2.37415 9.94707 2.34524 9.9187C2.31634 9.89033 2.2695 9.89033 2.24059 9.9187C2.12059 10.0365 2.14923 10.1588 2.18028 10.2882C2.08567 10.2579 1.98755 10.2802 1.93497 10.3455C1.90888 10.378 1.85841 10.4691 1.95298 10.6145C1.97497 10.6483 2.02044 10.6582 2.05516 10.6368C2.08966 10.6152 2.0997 10.5703 2.0777 10.5365C2.04223 10.4817 2.04118 10.448 2.0511 10.4356C2.06282 10.421 2.09915 10.4135 2.1372 10.4265C2.16177 10.4349 2.21887 10.4638 2.21887 10.5513C2.21887 10.6211 2.18598 10.685 2.12864 10.7266C2.07118 10.7683 1.9968 10.7802 1.92513 10.7582C1.83661 10.7317 1.77477 10.6402 1.77477 10.5357C1.77477 10.4609 1.7911 10.3853 1.82212 10.3169L2.30684 9.24654C2.34669 9.15859 2.36692 9.06505 2.36692 8.96875C2.36692 8.84481 2.3095 8.73164 2.21911 8.66255C2.30946 8.59347 2.36692 8.4803 2.36692 8.35636C2.36692 8.26002 2.34665 8.16651 2.30684 8.07857L1.82216 7.00832C1.79118 6.93993 1.77481 6.86433 1.77481 6.78953C1.77481 6.68495 1.83661 6.59348 1.92516 6.56695C1.99716 6.5451 2.07126 6.55687 2.12868 6.59858C2.18602 6.64017 2.21891 6.70412 2.21891 6.77393C2.21891 6.86134 2.1618 6.89024 2.13723 6.89864C2.09923 6.91183 2.06282 6.9042 2.05114 6.88955C2.04122 6.87721 2.04227 6.84343 2.07774 6.78865C2.09973 6.75488 2.0897 6.70995 2.0552 6.68836C2.02063 6.66709 1.97505 6.67701 1.95302 6.71067C1.85848 6.85612 1.90891 6.94717 1.93501 6.97968C1.98762 7.04478 2.08571 7.06721 2.18032 7.03696C2.14923 7.16634 2.12063 7.28868 2.24063 7.40649C2.25509 7.42067 2.27403 7.42776 2.29298 7.42776C2.31192 7.42776 2.33087 7.42067 2.34532 7.40649C2.37423 7.37812 2.37423 7.33215 2.34532 7.30378C2.28606 7.24562 2.29376 7.19782 2.32501 7.06813C2.34372 6.99038 2.367 6.89346 2.367 6.77401C2.367 6.69453 2.33852 6.61851 2.29063 6.55606H2.29302C2.33391 6.55606 2.36704 6.52359 2.36704 6.48341C2.36704 6.44327 2.33395 6.41076 2.29302 6.41076H2.29063C2.33856 6.34831 2.367 6.27237 2.367 6.19282C2.367 6.07336 2.34372 5.97645 2.32501 5.8987C2.2938 5.76901 2.28602 5.7212 2.34532 5.66304C2.37423 5.63468 2.37423 5.58871 2.34532 5.56034C2.31641 5.53197 2.26958 5.53197 2.24067 5.56034C2.12067 5.67815 2.1493 5.80044 2.18036 5.92987C2.08575 5.89966 1.98762 5.92205 1.93505 5.98714C1.90895 6.01961 1.85848 6.1107 1.95305 6.25615C1.97505 6.28993 2.02052 6.29974 2.05524 6.27846C2.08973 6.25688 2.09977 6.21191 2.07778 6.17818C2.04231 6.12339 2.04126 6.08962 2.05118 6.07727C2.0629 6.06267 2.09923 6.05515 2.13727 6.06819C2.16184 6.07654 2.21895 6.10549 2.21895 6.1929C2.21895 6.26271 2.18606 6.32669 2.12872 6.36825C2.07126 6.40996 1.99688 6.42173 1.9252 6.39988C1.83669 6.37335 1.77485 6.28184 1.77485 6.17729C1.77485 6.1025 1.79118 6.0269 1.8222 5.95851L2.30692 4.88818C2.34676 4.80024 2.367 4.70669 2.367 4.61039C2.367 4.48645 2.30958 4.37328 2.21919 4.3042C2.30954 4.23511 2.367 4.12194 2.367 3.998C2.367 3.90166 2.34673 3.80816 2.30692 3.72021L1.8222 2.64989C1.79122 2.58149 1.77485 2.50589 1.77485 2.4311C1.77485 2.32652 1.83665 2.23504 1.9252 2.20852C1.9972 2.18666 2.0713 2.19843 2.12872 2.24014C2.18606 2.28174 2.21895 2.34568 2.21895 2.4155C2.21895 2.5029 2.16184 2.53181 2.13727 2.54021C2.09927 2.55328 2.06286 2.54557 2.05118 2.53112C2.04126 2.51878 2.04231 2.485 2.07778 2.43022C2.09977 2.39644 2.08973 2.35147 2.05524 2.32993C2.02067 2.30865 1.97509 2.31843 1.95305 2.3522C1.85852 2.49765 1.90895 2.5887 1.93505 2.62121C1.98766 2.68631 2.08575 2.70873 2.18036 2.67849C2.14927 2.80787 2.12067 2.93021 2.24067 3.04801C2.25512 3.0622 2.27407 3.06929 2.29302 3.06929C2.31196 3.06929 2.33091 3.0622 2.34536 3.04801C2.37426 3.01965 2.37426 2.97368 2.34536 2.94531C2.2861 2.88715 2.2938 2.83935 2.32505 2.70965C2.34376 2.63191 2.36704 2.53499 2.36704 2.41553C2.36704 2.33606 2.33856 2.26004 2.29067 2.19759H2.29305C2.33395 2.19759 2.36708 2.16512 2.36708 2.12494C2.36708 2.0848 2.33399 2.05229 2.29305 2.05229H2.29067C2.3386 1.98984 2.36704 1.9139 2.36704 1.83435C2.3668 1.7147 2.34352 1.61778 2.32485 1.54004ZM1.57368 1.23047C1.54739 1.15303 1.55657 1.1089 1.57391 1.09341C1.58524 1.08291 1.60243 1.08333 1.61333 1.08816C1.62669 1.09399 1.62669 1.10323 1.62669 1.10775C1.62669 1.14789 1.65977 1.1804 1.70071 1.1804C1.74161 1.1804 1.77473 1.14793 1.77473 1.10775C1.77473 1.10323 1.77473 1.09399 1.78809 1.08816C1.7988 1.08333 1.81587 1.08291 1.82751 1.09341C1.84485 1.1089 1.85403 1.15303 1.82774 1.23047C1.8086 1.28663 1.73934 1.43285 1.70075 1.5122C1.66294 1.43469 1.59294 1.28701 1.57368 1.23047ZM1.70067 4.22783C1.72192 4.25616 1.74595 4.28254 1.77516 4.30401C1.74595 4.32551 1.72192 4.35185 1.70067 4.38018C1.67942 4.35185 1.6554 4.32547 1.62618 4.30401C1.6554 4.2825 1.67942 4.2562 1.70067 4.22783ZM1.70067 8.58642C1.72192 8.61475 1.74595 8.64112 1.77516 8.66259C1.74595 8.6841 1.72192 8.71044 1.70067 8.73877C1.67942 8.71044 1.6554 8.68406 1.62618 8.66259C1.6554 8.64108 1.67942 8.61482 1.70067 8.58642ZM1.82763 11.7362C1.85391 11.8136 1.84473 11.8577 1.82739 11.8732C1.81575 11.8836 1.79868 11.8832 1.78798 11.8785C1.77462 11.8726 1.77462 11.8634 1.77462 11.8589C1.77462 11.8187 1.74153 11.7862 1.70059 11.7862C1.65966 11.7862 1.62657 11.8187 1.62657 11.8589C1.62657 11.8634 1.62657 11.8726 1.61321 11.8785C1.60235 11.8832 1.58516 11.8836 1.5738 11.8732C1.55645 11.8577 1.54727 11.8136 1.57356 11.7362C1.5927 11.68 1.66196 11.5338 1.70056 11.4544C1.73837 11.5319 1.80837 11.6796 1.82763 11.7362ZM1.77446 10.8419C1.74645 10.8633 1.72161 10.8889 1.70067 10.9178C1.67977 10.8889 1.65489 10.8633 1.62688 10.8419C1.65489 10.8205 1.67973 10.7949 1.70067 10.7659C1.72157 10.7949 1.74641 10.8205 1.77446 10.8419ZM2.17141 9.18754L1.70063 10.2271L1.22985 9.18754C1.19888 9.11914 1.18251 9.04354 1.18251 8.96875C1.18251 8.86417 1.24431 8.77266 1.33286 8.74617C1.40481 8.72431 1.47903 8.73608 1.53638 8.77779C1.59372 8.81939 1.62661 8.88333 1.62661 8.95315C1.62661 9.04055 1.5695 9.06946 1.54493 9.07786C1.50677 9.09093 1.47048 9.08341 1.45884 9.06877C1.44892 9.05643 1.44997 9.02265 1.48544 8.96787C1.50743 8.93409 1.49739 8.88912 1.4629 8.86758C1.42833 8.8463 1.38274 8.85623 1.36071 8.88989C1.26618 9.03534 1.31661 9.12639 1.3427 9.1589C1.3963 9.2253 1.49712 9.24815 1.59352 9.21506C1.6045 9.21134 1.61563 9.20671 1.62661 9.20122V9.38493C1.62661 9.3849 1.62649 9.38482 1.62649 9.38482C1.62427 9.34656 1.592 9.31639 1.55263 9.31639C1.51173 9.31639 1.4786 9.34886 1.4786 9.38904C1.4786 9.43642 1.51235 9.51861 1.62661 9.54407V9.67959C1.62661 9.71973 1.6597 9.75224 1.70063 9.75224C1.74157 9.75224 1.77466 9.71977 1.77466 9.67959V9.54407C1.88891 9.51861 1.92266 9.43642 1.92266 9.38904C1.92266 9.3489 1.88966 9.31401 1.8488 9.31401C1.8079 9.31401 1.77493 9.3441 1.77493 9.38424C1.77489 9.38436 1.77466 9.38455 1.77462 9.38467V9.2013C1.78559 9.20678 1.79673 9.21142 1.8077 9.21514C1.90411 9.24819 2.00489 9.22534 2.05852 9.15898C2.08462 9.1265 2.13509 9.03542 2.04052 8.88997C2.01852 8.85619 1.97286 8.84626 1.93833 8.86765C1.90384 8.88924 1.8938 8.93421 1.91579 8.96794C1.95126 9.02273 1.95231 9.0565 1.94239 9.06885C1.93067 9.08345 1.89438 9.09097 1.8563 9.07793C1.83173 9.06958 1.77462 9.04063 1.77462 8.95322C1.77462 8.88341 1.80751 8.81943 1.86485 8.77787C1.92231 8.73616 1.99669 8.72424 2.06837 8.74624C2.15688 8.77277 2.21872 8.86428 2.21872 8.96883C2.2188 9.04354 2.20247 9.11918 2.17141 9.18754ZM2.17141 8.13765C2.20239 8.20604 2.21876 8.28164 2.21876 8.35643C2.21876 8.46102 2.15696 8.55249 2.06841 8.57902C1.99657 8.60102 1.92223 8.5891 1.86489 8.54739C1.80755 8.50579 1.77466 8.44185 1.77466 8.37204C1.77466 8.28463 1.83177 8.25572 1.85634 8.24733C1.89442 8.23425 1.93075 8.24177 1.94243 8.25641C1.95235 8.26876 1.9513 8.30253 1.91583 8.35732C1.89384 8.39109 1.90388 8.43602 1.93837 8.4576C1.97313 8.47919 2.01876 8.46922 2.04055 8.43529C2.13509 8.28984 2.08466 8.19879 2.05856 8.16628C2.00493 8.09988 1.90415 8.0773 1.80774 8.11012C1.79677 8.11384 1.78563 8.11852 1.77466 8.12396V7.94021L1.77477 7.94044C1.777 7.97859 1.80927 8.00883 1.84864 8.00883C1.88954 8.00883 1.92266 7.97636 1.92266 7.93619C1.92266 7.8888 1.88891 7.80661 1.77466 7.78115V7.64563C1.77466 7.60549 1.74157 7.57298 1.70063 7.57298C1.6597 7.57298 1.62661 7.60545 1.62661 7.64563V7.78115C1.51235 7.80661 1.4786 7.8888 1.4786 7.93619C1.4786 7.97632 1.51161 8.01121 1.55247 8.01121C1.59337 8.01121 1.62634 7.98112 1.62634 7.94098C1.62638 7.94086 1.62661 7.94067 1.62661 7.94067L1.62665 8.12392C1.61567 8.11844 1.60454 8.1138 1.59356 8.11008C1.49716 8.0773 1.39634 8.09988 1.34274 8.16625C1.31665 8.19872 1.26618 8.2898 1.36075 8.43525C1.38274 8.46903 1.42841 8.47884 1.46294 8.45757C1.49743 8.43598 1.50747 8.39101 1.48548 8.35728C1.45001 8.30249 1.44895 8.26872 1.45888 8.25638C1.47052 8.24177 1.50681 8.23426 1.54497 8.24729C1.56954 8.25565 1.62665 8.28459 1.62665 8.372C1.62665 8.44181 1.59376 8.50579 1.53642 8.54735C1.47895 8.58906 1.40474 8.60098 1.3329 8.57898C1.24438 8.55245 1.18255 8.46094 1.18255 8.3564C1.18255 8.2816 1.19888 8.206 1.22989 8.13761L1.70067 7.09807L2.17141 8.13765ZM1.77446 6.48334C1.74645 6.50473 1.72161 6.53034 1.70067 6.55928C1.67977 6.53034 1.65489 6.50477 1.62688 6.48334C1.65489 6.46194 1.67973 6.43634 1.70067 6.40739C1.72157 6.4363 1.74641 6.46191 1.77446 6.48334ZM2.17141 4.82899L1.70063 5.86853L1.22985 4.82899C1.19888 4.7606 1.18251 4.685 1.18251 4.6102C1.18251 4.50562 1.24431 4.41415 1.33286 4.38762C1.40481 4.36577 1.47903 4.37753 1.53638 4.41925C1.59372 4.46084 1.62661 4.52479 1.62661 4.5946C1.62661 4.68201 1.5695 4.71091 1.54493 4.71931C1.50677 4.7325 1.47048 4.72487 1.45884 4.71022C1.44892 4.69788 1.44997 4.6641 1.48544 4.60932C1.50743 4.57554 1.49739 4.53058 1.4629 4.50903C1.42833 4.48764 1.38274 4.49753 1.36071 4.53134C1.26618 4.67679 1.31661 4.76784 1.3427 4.80035C1.3963 4.86675 1.49712 4.88945 1.59352 4.85651C1.6045 4.8528 1.61563 4.84816 1.62661 4.84268V5.02638L1.62649 5.02615C1.62427 4.98801 1.592 4.95776 1.55263 4.95776C1.51173 4.95776 1.4786 4.99023 1.4786 5.03041C1.4786 5.07779 1.51235 5.15999 1.62661 5.18544V5.32097C1.62661 5.3611 1.6597 5.39361 1.70063 5.39361C1.74157 5.39361 1.77466 5.36114 1.77466 5.32097V5.18544C1.88891 5.15999 1.92266 5.07779 1.92266 5.03041C1.92266 4.99027 1.88966 4.95535 1.8488 4.95535C1.8079 4.95535 1.77493 4.98544 1.77493 5.02558C1.77489 5.02569 1.77466 5.02589 1.77466 5.02589L1.77462 4.84264C1.78559 4.84812 1.79673 4.85276 1.8077 4.85648C1.90411 4.88937 2.00489 4.86667 2.05852 4.80031C2.08462 4.76784 2.13509 4.67675 2.04052 4.5313C2.01852 4.49738 1.97286 4.48749 1.93833 4.50899C1.90384 4.53058 1.8938 4.57554 1.91579 4.60928C1.95126 4.66406 1.95231 4.69784 1.94239 4.71018C1.93067 4.72479 1.89438 4.7325 1.8563 4.71927C1.83173 4.71091 1.77462 4.68197 1.77462 4.59456C1.77462 4.52475 1.80751 4.46076 1.86485 4.41921C1.92231 4.3775 1.99669 4.36573 2.06837 4.38758C2.15688 4.41411 2.21872 4.50562 2.21872 4.61016C2.2188 4.685 2.20247 4.7606 2.17141 4.82899ZM2.17141 3.77906C2.20239 3.84745 2.21876 3.92305 2.21876 3.99785C2.21876 4.10243 2.15696 4.1939 2.06841 4.22043C1.99657 4.24244 1.92223 4.23051 1.86489 4.1888C1.80755 4.14721 1.77466 4.08326 1.77466 4.01345C1.77466 3.92604 1.83177 3.89714 1.85634 3.88874C1.89442 3.87567 1.93075 3.88318 1.94243 3.89783C1.95235 3.91017 1.9513 3.94395 1.91583 3.99873C1.89384 4.0325 1.90388 4.07743 1.93837 4.09902C1.97313 4.12041 2.01876 4.11063 2.04055 4.07671C2.13509 3.93126 2.08466 3.84021 2.05856 3.8077C2.00493 3.7413 1.90415 3.7186 1.80774 3.75153C1.79677 3.75525 1.78563 3.75989 1.77466 3.76537V3.58166C1.77466 3.5817 1.77477 3.58178 1.77477 3.58178C1.777 3.62004 1.80927 3.65021 1.84864 3.65021C1.88954 3.65021 1.92266 3.61774 1.92266 3.57756C1.92266 3.53018 1.88891 3.44798 1.77466 3.42253V3.28701C1.77466 3.24687 1.74157 3.21436 1.70063 3.21436C1.6597 3.21436 1.62661 3.24683 1.62661 3.28701V3.42253C1.51235 3.44798 1.4786 3.53018 1.4786 3.57756C1.4786 3.6177 1.51161 3.65262 1.55247 3.65262C1.59337 3.65262 1.62634 3.62253 1.62634 3.58239C1.62638 3.58228 1.62661 3.58208 1.62665 3.58197V3.76533C1.61567 3.75985 1.60454 3.75521 1.59356 3.7515C1.49716 3.7186 1.39634 3.7413 1.34274 3.80766C1.31665 3.84013 1.26618 3.93122 1.36075 4.07667C1.38274 4.11044 1.42841 4.12026 1.46294 4.09898C1.49743 4.0774 1.50747 4.03243 1.48548 3.99869C1.45001 3.94391 1.44895 3.91013 1.45888 3.89779C1.47052 3.88318 1.50681 3.87567 1.54497 3.8887C1.56954 3.89706 1.62665 3.926 1.62665 4.01341C1.62665 4.08322 1.59376 4.14721 1.53642 4.18876C1.47895 4.23047 1.40474 4.2424 1.3329 4.22039C1.24438 4.19386 1.18255 4.10235 1.18255 3.99781C1.18255 3.92301 1.19888 3.84741 1.22989 3.77902L1.70067 2.73948L2.17141 3.77906ZM1.62684 2.12475C1.65485 2.10336 1.6797 2.07775 1.70063 2.0488C1.72153 2.07775 1.74641 2.10332 1.77442 2.12475C1.74641 2.14614 1.72157 2.17175 1.70063 2.20069C1.67973 2.17175 1.65489 2.14614 1.62684 2.12475Z" fill="#FFE15A"/>
<path d="M10.5757 7.37448C11.5596 7.37448 12.3572 6.5917 12.3572 5.62609C12.3572 4.66048 11.5596 3.8777 10.5757 3.8777C9.59179 3.8777 8.79419 4.66048 8.79419 5.62609C8.79419 6.5917 9.59179 7.37448 10.5757 7.37448Z" fill="#FFE15A"/>
<path d="M10.7096 3.39691C10.7096 3.46932 10.6498 3.52806 10.576 3.52806C10.5022 3.52806 10.4424 3.46932 10.4424 3.39691C10.4424 3.32449 10.576 3.00349 10.576 3.00349C10.576 3.00349 10.7096 3.32449 10.7096 3.39691Z" fill="#FFE15A"/>
<path d="M10.4424 7.85559C10.4424 7.78317 10.5022 7.72444 10.576 7.72444C10.6498 7.72444 10.7096 7.78317 10.7096 7.85559C10.7096 7.92801 10.576 8.249 10.576 8.249C10.576 8.249 10.4424 7.92805 10.4424 7.85559Z" fill="#FFE15A"/>
<path d="M12.8475 5.75739C12.7737 5.75739 12.7139 5.69865 12.7139 5.62624C12.7139 5.55382 12.7737 5.49509 12.8475 5.49509C12.9213 5.49509 13.2484 5.62624 13.2484 5.62624C13.2484 5.62624 12.9213 5.75739 12.8475 5.75739Z" fill="#FFE15A"/>
<path d="M8.30442 5.49512C8.37821 5.49512 8.43806 5.55385 8.43806 5.62627C8.43806 5.69869 8.37821 5.75742 8.30442 5.75742C8.23063 5.75742 7.90356 5.62627 7.90356 5.62627C7.90356 5.62627 8.23063 5.49512 8.30442 5.49512Z" fill="#FFE15A"/>
<path d="M12.2767 4.14261C12.2245 4.19383 12.14 4.19383 12.0877 4.14261C12.0355 4.0914 12.0356 4.0084 12.0877 3.95714C12.1399 3.90588 12.4657 3.77167 12.4657 3.77167C12.4657 3.77167 12.329 4.0914 12.2767 4.14261Z" fill="#FFE15A"/>
<path d="M8.87547 7.1099C8.92766 7.05868 9.01223 7.05868 9.06445 7.1099C9.11668 7.16112 9.11664 7.24412 9.06445 7.29537C9.01227 7.34663 8.68652 7.48081 8.68652 7.48081C8.68652 7.48081 8.82328 7.16116 8.87547 7.1099Z" fill="#FFE15A"/>
<path d="M12.0877 7.29539C12.0355 7.24417 12.0355 7.16117 12.0877 7.10992C12.1399 7.05866 12.2245 7.0587 12.2767 7.10992C12.3289 7.16113 12.4657 7.48082 12.4657 7.48082C12.4657 7.48082 12.1399 7.34657 12.0877 7.29539Z" fill="#FFE15A"/>
<path d="M9.06425 3.95713C9.11644 4.00835 9.11644 4.09135 9.06425 4.14261C9.01206 4.19386 8.92749 4.19382 8.87526 4.14261C8.82304 4.09139 8.68628 3.7717 8.68628 3.7717C8.68628 3.7717 9.01206 3.90595 9.06425 3.95713Z" fill="#FFE15A"/>
<path d="M9.8301 3.51641C9.85834 3.58334 9.82596 3.66002 9.75775 3.68773C9.68955 3.71545 9.61143 3.68367 9.58318 3.61673C9.55494 3.5498 9.55322 3.20308 9.55322 3.20308C9.55322 3.20308 9.80186 3.44947 9.8301 3.51641Z" fill="#FFE15A"/>
<path d="M11.322 7.73609C11.2937 7.66916 11.3261 7.59248 11.3943 7.56476C11.4625 7.53705 11.5406 7.56883 11.5689 7.63576C11.5971 7.7027 11.5988 8.04942 11.5988 8.04942C11.5988 8.04942 11.3502 7.80303 11.322 7.73609Z" fill="#FFE15A"/>
<path d="M12.7258 4.8943C12.6576 4.92202 12.5795 4.89024 12.5512 4.82331C12.523 4.75637 12.5554 4.6797 12.6236 4.65198C12.6918 4.62426 13.045 4.62257 13.045 4.62257C13.045 4.62257 12.794 4.86655 12.7258 4.8943Z" fill="#FFE15A"/>
<path d="M8.42619 6.35821C8.49439 6.33049 8.57252 6.36227 8.60076 6.42921C8.629 6.49614 8.59662 6.57282 8.52842 6.60053C8.46021 6.62825 8.10693 6.62994 8.10693 6.62994C8.10693 6.62994 8.35799 6.38596 8.42619 6.35821Z" fill="#FFE15A"/>
<path d="M11.5689 3.61677C11.5406 3.68371 11.4625 3.71545 11.3943 3.68777C11.3261 3.66005 11.2938 3.58334 11.322 3.51644C11.3502 3.44955 11.5988 3.20316 11.5988 3.20316C11.5988 3.20316 11.5971 3.54987 11.5689 3.61677Z" fill="#FFE15A"/>
<path d="M9.58339 7.63573C9.61163 7.5688 9.68979 7.53705 9.75796 7.56473C9.82616 7.59245 9.85851 7.66916 9.8303 7.73606C9.80206 7.803 9.55347 8.04935 9.55347 8.04935C9.55347 8.04935 9.55515 7.70267 9.58339 7.63573Z" fill="#FFE15A"/>
<path d="M12.6235 6.60053C12.5553 6.57281 12.523 6.4961 12.5512 6.42921C12.5794 6.36227 12.6576 6.33053 12.7258 6.35821C12.7939 6.38588 13.045 6.6299 13.045 6.6299C13.045 6.6299 12.6917 6.62829 12.6235 6.60053Z" fill="#FFE15A"/>
<path d="M8.52838 4.65199C8.59658 4.6797 8.62893 4.75642 8.60072 4.82331C8.57248 4.89021 8.49432 4.92199 8.42615 4.89431C8.35799 4.8666 8.10693 4.62262 8.10693 4.62262C8.10693 4.62262 8.46025 4.62423 8.52838 4.65199Z" fill="#FFE15A"/>
<path d="M10.2639 3.41417C10.2783 3.48521 10.2313 3.55425 10.1589 3.56836C10.0865 3.5825 10.0162 3.53639 10.0018 3.46531C9.98737 3.39427 10.0546 3.05388 10.0546 3.05388C10.0546 3.05388 10.2495 3.34313 10.2639 3.41417Z" fill="#FFE15A"/>
<path d="M10.8881 7.83835C10.8737 7.76731 10.9207 7.69827 10.9931 7.68416C11.0655 7.67001 11.1358 7.71613 11.1502 7.78721C11.1646 7.85825 11.0974 8.19864 11.0974 8.19864C11.0974 8.19864 10.9025 7.90939 10.8881 7.83835Z" fill="#FFE15A"/>
<path d="M12.8299 5.31993C12.7575 5.33407 12.6871 5.28795 12.6728 5.21688C12.6584 5.1458 12.7053 5.07679 12.7778 5.06269C12.8501 5.04854 13.197 5.11456 13.197 5.11456C13.197 5.11456 12.9023 5.30582 12.8299 5.31993Z" fill="#FFE15A"/>
<path d="M8.32219 5.93259C8.39457 5.91844 8.46492 5.96456 8.4793 6.03564C8.49371 6.10671 8.44672 6.17572 8.3743 6.18983C8.30191 6.20398 7.95508 6.13796 7.95508 6.13796C7.95508 6.13796 8.2498 5.9467 8.32219 5.93259Z" fill="#FFE15A"/>
<path d="M11.9491 3.84549C11.9081 3.90571 11.8251 3.92189 11.7637 3.88164C11.7024 3.84138 11.6859 3.75996 11.7269 3.69973C11.7679 3.6395 12.0607 3.44548 12.0607 3.44548C12.0607 3.44548 11.9901 3.78522 11.9491 3.84549Z" fill="#FFE15A"/>
<path d="M9.20291 7.40701C9.24389 7.34678 9.32689 7.3306 9.38826 7.37086C9.44963 7.41107 9.46611 7.49254 9.4251 7.55277C9.38412 7.61299 9.09131 7.80702 9.09131 7.80702C9.09131 7.80702 9.16193 7.46727 9.20291 7.40701Z" fill="#FFE15A"/>
<path d="M12.3904 6.97387C12.3291 6.93365 12.3126 6.85219 12.3536 6.79196C12.3946 6.73173 12.4776 6.71555 12.539 6.75581C12.6003 6.79602 12.798 7.08339 12.798 7.08339C12.798 7.08339 12.4518 7.01408 12.3904 6.97387Z" fill="#FFE15A"/>
<path d="M8.76158 4.27866C8.82295 4.31887 8.83943 4.40034 8.79842 4.46056C8.75744 4.52079 8.67443 4.53697 8.61307 4.49672C8.5517 4.45646 8.354 4.16913 8.354 4.16913C8.354 4.16913 8.70025 4.23844 8.76158 4.27866Z" fill="#FFE15A"/>
<path d="M9.4251 3.69974C9.46607 3.75996 9.44959 3.84139 9.38826 3.88165C9.32693 3.9219 9.24393 3.90568 9.20291 3.84549C9.16193 3.78527 9.09131 3.44553 9.09131 3.44553C9.09131 3.44553 9.38412 3.63955 9.4251 3.69974Z" fill="#FFE15A"/>
<path d="M11.7269 7.55277C11.6859 7.49254 11.7024 7.41111 11.7637 7.37086C11.825 7.33065 11.908 7.34682 11.9491 7.40701C11.99 7.46724 12.0607 7.80698 12.0607 7.80698C12.0607 7.80698 11.7679 7.61296 11.7269 7.55277Z" fill="#FFE15A"/>
<path d="M12.5389 4.49672C12.4776 4.53693 12.3946 4.52075 12.3536 4.46056C12.3126 4.40034 12.3291 4.31891 12.3904 4.27866C12.4518 4.23844 12.798 4.16913 12.798 4.16913C12.798 4.16913 12.6003 4.4565 12.5389 4.49672Z" fill="#FFE15A"/>
<path d="M8.61303 6.75579C8.67439 6.71558 8.75736 6.73176 8.79838 6.79195C8.83935 6.85217 8.82287 6.9336 8.76154 6.97385C8.70018 7.01407 8.354 7.08338 8.354 7.08338C8.354 7.08338 8.55166 6.79601 8.61303 6.75579Z" fill="#FFE15A"/>
<path d="M11.1502 3.46531C11.1358 3.53635 11.0655 3.5825 10.9931 3.56836C10.9207 3.55421 10.8737 3.48521 10.8881 3.41417C10.9025 3.34313 11.0974 3.05388 11.0974 3.05388C11.0974 3.05388 11.1646 3.39427 11.1502 3.46531Z" fill="#FFE15A"/>
<path d="M10.0018 7.78721C10.0162 7.71617 10.0865 7.67001 10.1589 7.68416C10.2313 7.69831 10.2783 7.76731 10.2639 7.83835C10.2495 7.90939 10.0546 8.19864 10.0546 8.19864C10.0546 8.19864 9.9874 7.85825 10.0018 7.78721Z" fill="#FFE15A"/>
<path d="M12.7778 6.18983C12.7054 6.17568 12.6583 6.10668 12.6728 6.03564C12.6872 5.9646 12.7575 5.91844 12.8299 5.93259C12.9023 5.94673 13.197 6.13796 13.197 6.13796C13.197 6.13796 12.8501 6.20394 12.7778 6.18983Z" fill="#FFE15A"/>
<path d="M8.3743 5.06269C8.44668 5.07684 8.49371 5.14585 8.4793 5.21688C8.46488 5.28792 8.39457 5.33408 8.32219 5.31993C8.2498 5.30579 7.95508 5.11456 7.95508 5.11456C7.95508 5.11456 8.30191 5.04858 8.3743 5.06269Z" fill="#FFE15A"/>
<path d="M14.7667 6.08629C14.7146 6.06475 14.6549 6.08944 14.6332 6.14035C14.6332 6.14058 14.6332 6.14058 14.6332 6.14058C14.6328 6.14154 14.6307 6.14625 14.6273 6.1543C14.55 6.33134 14.3903 6.59008 14.2289 6.83348C14.3792 6.35875 14.5166 5.85171 14.5262 5.81606C14.5405 5.76281 14.5084 5.70814 14.4542 5.69368C14.4 5.67939 14.3442 5.71036 14.329 5.76338C14.2589 6.00996 14.1155 6.33448 13.9832 6.60921C14.0074 6.3029 14.012 6.01913 14.0123 5.99858C14.0131 5.94433 13.9698 5.89948 13.9145 5.89691C13.8625 5.89848 13.8124 5.93571 13.8083 5.98991C13.6775 7.75601 11.9459 8.54606 11.7773 8.61874C11.6891 8.62737 11.2782 8.6728 10.9052 8.79988C10.863 8.8143 10.8269 8.82875 10.7911 8.84309C10.7778 8.83818 10.7635 8.83542 10.7484 8.83631C9.60383 8.91758 8.69117 8.45677 8.03524 7.46952C7.53965 6.72356 7.38422 5.94057 7.3827 5.93275C7.37223 5.87832 7.3191 5.84324 7.2634 5.85286C7.20793 5.86321 7.17149 5.9155 7.182 5.96994C7.18614 5.99156 7.25434 6.33333 7.44215 6.78314C7.19086 6.39383 7.01575 5.92221 6.95411 5.67659C6.95286 5.67168 6.94965 5.66796 6.94778 5.66344C6.94489 5.6565 6.94246 5.64952 6.93821 5.6435C6.9352 5.63925 6.93125 5.63614 6.9277 5.63242C6.92211 5.62663 6.91676 5.62096 6.90993 5.61663C6.90602 5.61414 6.90164 5.61291 6.89739 5.61095C6.88985 5.6075 6.88246 5.60409 6.87407 5.60252C6.86825 5.60141 6.86231 5.60214 6.85625 5.60202C6.85012 5.60194 6.84434 5.60041 6.83805 5.60148C6.83668 5.60171 6.83563 5.60263 6.83426 5.60294C6.83293 5.60321 6.83168 5.60279 6.83036 5.60306C6.82489 5.60436 6.82071 5.60773 6.81571 5.60984C6.80934 5.61256 6.80282 5.6146 6.79723 5.61839C6.79172 5.62211 6.78762 5.62694 6.78305 5.63158C6.77848 5.63618 6.77372 5.64024 6.77012 5.64557C6.76649 5.65098 6.76454 5.65707 6.76196 5.66309C6.7595 5.66896 6.75664 5.67448 6.75536 5.6808C6.75403 5.68728 6.75461 5.69395 6.75465 5.70074C6.75465 5.70614 6.75313 5.71132 6.75411 5.71684C6.7545 5.71922 6.75528 5.72159 6.75571 5.72389V5.72428C6.75582 5.7247 6.75598 5.72527 6.7561 5.72573C6.8193 6.0912 6.96993 6.47004 7.10614 6.75895C6.88985 6.51808 6.70911 6.24056 6.64504 6.07621C6.64321 6.07142 6.6395 6.06808 6.637 6.06379C6.63321 6.05716 6.62989 6.05037 6.62477 6.04489C6.62114 6.04098 6.61672 6.03845 6.61258 6.03519C6.60637 6.03028 6.60047 6.02534 6.59329 6.02196C6.58868 6.01982 6.58368 6.01913 6.57879 6.01763C6.57125 6.01541 6.56395 6.01295 6.55594 6.01246C6.54965 6.01203 6.5434 6.01361 6.53704 6.01441C6.53114 6.01514 6.52532 6.01441 6.51946 6.01621C6.51832 6.01656 6.51754 6.01744 6.51649 6.01782C6.5154 6.01817 6.5143 6.01794 6.51321 6.01836C6.50766 6.02043 6.50372 6.02445 6.49875 6.02733C6.49293 6.0307 6.48672 6.0335 6.48176 6.03787C6.47668 6.04236 6.47317 6.04792 6.46918 6.05325C6.46539 6.05827 6.46118 6.06275 6.45836 6.06835C6.45543 6.07422 6.45434 6.08058 6.45266 6.08691C6.45098 6.09308 6.44875 6.09883 6.44832 6.10531C6.44786 6.11179 6.4495 6.11826 6.45036 6.12482C6.4511 6.13049 6.45032 6.13613 6.45211 6.14173C6.56329 6.49366 6.83063 6.91237 7.04008 7.20734C6.86555 7.07534 6.73727 6.93258 6.70004 6.88949C6.69602 6.88481 6.69207 6.88009 6.68805 6.87542C6.65204 6.8329 6.5884 6.82684 6.54477 6.8615C6.50129 6.89635 6.49446 6.95907 6.52961 7.00189C6.53153 7.00427 6.53918 7.01366 6.552 7.02834C6.70528 7.20734 6.87227 7.37437 7.02356 7.51541L6.81661 7.42885C6.76942 7.40887 6.71395 7.42689 6.68813 7.47094C6.66227 7.51503 6.67395 7.57081 6.71536 7.60136C6.73551 7.61604 7.102 7.88475 7.41926 8.04358C7.38934 8.04534 7.35422 8.04319 7.31492 8.04024C7.26696 8.03572 7.21977 8.06942 7.20809 8.11718C7.1966 8.16514 7.22215 8.21414 7.26856 8.23292C7.27637 8.23607 7.37305 8.27521 7.49242 8.31692C7.46457 8.32807 7.44242 8.351 7.43324 8.38075C7.4195 8.42522 7.43883 8.47341 7.47992 8.49649C7.49063 8.50258 7.63504 8.58386 7.81375 8.65589C7.80899 8.66314 7.80508 8.67096 7.80215 8.67958C7.78817 8.72168 7.80414 8.76791 7.84137 8.79318C7.87238 8.81411 8.56633 9.2763 9.3768 9.2763C9.43 9.2763 9.48375 9.27434 9.53781 9.27005C9.59398 9.26572 9.63601 9.21737 9.63152 9.16213C9.62703 9.10689 9.57824 9.06518 9.52148 9.07027C9.01234 9.11103 8.52184 8.92341 8.23012 8.78003C8.26863 8.77079 8.29078 8.76239 8.29629 8.76024C8.34129 8.74223 8.36723 8.6958 8.35844 8.64899C8.34965 8.60222 8.30856 8.56791 8.25996 8.56691C8.14152 8.56454 7.9775 8.50795 7.83621 8.44723C7.88957 8.421 7.92074 8.39589 7.92348 8.39375C7.95422 8.36848 7.96719 8.32815 7.95672 8.29016C7.94617 8.25236 7.91399 8.22395 7.87453 8.2177C7.83113 8.21065 7.77703 8.19692 7.72039 8.18009C7.77547 8.14896 7.79891 8.11469 7.80789 8.09725C7.82207 8.06945 7.82238 8.03691 7.80879 8.00892C7.79512 7.98093 7.7691 7.96073 7.73813 7.95425C7.71141 7.94858 7.68114 7.93899 7.64844 7.92646C7.65442 7.92059 7.65992 7.91392 7.66438 7.90629C7.69039 7.86301 7.67965 7.80738 7.63926 7.77625C7.63715 7.77468 7.55785 7.71361 7.43778 7.61194C7.45684 7.60508 7.47367 7.59235 7.48586 7.57514C7.5116 7.53872 7.50985 7.48995 7.48157 7.45545C7.4793 7.45269 7.39989 7.3547 7.29043 7.20588C7.32657 7.23341 7.36266 7.26154 7.39875 7.28432C7.41575 7.2949 7.43496 7.30019 7.45403 7.30019C7.47989 7.30019 7.50539 7.2906 7.52504 7.27197C7.53313 7.26431 7.53946 7.25549 7.54446 7.24609C7.60645 7.31108 7.67156 7.37008 7.73996 7.42041C7.74887 7.42697 7.75969 7.42685 7.76969 7.43015C7.79867 7.47784 7.82883 7.52561 7.86047 7.57338C8.4809 8.51025 9.3557 9.01208 10.4049 9.04221C10.3083 9.09979 10.2034 9.15929 10.0374 9.22278C10.0011 9.23666 9.9691 9.25053 9.93691 9.26445C9.92136 9.26744 9.90679 9.27296 9.89465 9.28243C9.6048 9.41412 9.4848 9.54423 9.43613 9.63524C9.38754 9.72572 9.42945 9.81853 9.48879 9.86672C9.50723 9.8816 9.5307 9.88923 9.55422 9.88923C9.57039 9.88923 9.58656 9.8857 9.60121 9.87845C9.63734 9.86082 9.66148 9.8234 9.65988 9.78407C9.66406 9.77958 9.68183 9.76509 9.7375 9.76329C9.77808 9.75995 9.86351 9.76896 9.9632 9.77678C10.058 9.78445 10.1718 9.79315 10.2927 9.79925C10.2171 9.88581 10.1291 9.98614 10.1291 9.98614C10.1027 10.0163 10.0969 10.059 10.1145 10.0948C10.1321 10.1309 10.1702 10.1532 10.2101 10.1518C10.2908 10.149 10.3457 10.1475 10.3817 10.1467C10.4131 10.1871 10.4516 10.2031 10.4765 10.2094C10.5468 10.227 10.6168 10.1994 10.6695 10.1667C10.7094 10.1949 10.7494 10.2068 10.781 10.2114C10.8523 10.221 10.9184 10.2006 10.9662 10.1775C11.0157 10.2088 11.0641 10.2169 11.1011 10.2169C11.1016 10.2169 11.1022 10.2169 11.1028 10.2169C11.1825 10.2165 11.2523 10.1787 11.3016 10.1416C11.3452 10.1671 11.3869 10.1753 11.4191 10.1767C11.4923 10.1792 11.5529 10.1516 11.5932 10.1258C11.7372 10.1541 11.8613 10.0876 11.9434 10.0141C11.9808 10.0355 12.0164 10.0408 12.0447 10.0394C12.1176 10.0369 12.1732 9.99335 12.2089 9.9544C12.3721 9.97376 12.4893 9.9442 12.5569 9.8653C12.5939 9.8224 12.6089 9.77406 12.6129 9.72997C13.0658 9.72744 13.1068 9.48477 13.1101 9.45479C13.1131 9.42754 13.1046 9.40035 13.0866 9.37942C13.0686 9.35849 13.0426 9.34553 13.0148 9.34396L11.8274 9.27388C11.7777 9.27035 11.7334 9.30306 11.7219 9.35067C11.7216 9.35144 11.7014 9.42546 11.6381 9.48466C11.5528 9.56451 11.4156 9.60668 11.2664 9.62903C11.2669 9.61562 11.265 9.60197 11.2598 9.58863C11.2394 9.53695 11.1802 9.51184 11.1277 9.53127C10.8825 9.62462 10.4857 9.61289 10.1752 9.59169C10.2228 9.55351 10.2802 9.51567 10.326 9.49098C10.3647 9.47005 10.3855 9.42715 10.3773 9.38448C10.3713 9.35347 10.3485 9.33189 10.3209 9.31801C10.4072 9.27522 10.478 9.2339 10.5452 9.19372C10.6617 9.12364 10.7718 9.05758 10.9724 8.98927C11.3595 8.85728 11.8075 8.81714 11.812 8.81672C11.8221 8.81591 11.8321 8.81338 11.8416 8.80966C11.8575 8.80318 13.1212 8.28364 13.7166 7.08485C13.7087 7.12108 13.7004 7.1542 13.6913 7.18315C13.6757 7.23252 13.7008 7.2852 13.7493 7.30513C13.7868 7.32062 13.8294 7.31257 13.8583 7.28635C13.8207 7.38369 13.7867 7.46024 13.7589 7.50548C13.7306 7.55152 13.7442 7.61125 13.7898 7.641C13.8005 7.64787 13.812 7.65254 13.8237 7.6553C13.7776 7.72151 13.7309 7.78415 13.6843 7.84154C13.6533 7.87973 13.6551 7.9342 13.6875 7.97024C13.6075 8.05247 13.5366 8.12025 13.4827 8.16334C13.4475 8.19133 13.436 8.23814 13.4522 8.27812C13.4002 8.3073 13.3575 8.32788 13.3279 8.33666C13.2782 8.35135 13.2477 8.40049 13.2571 8.45064C13.2619 8.47709 13.2771 8.4994 13.298 8.51408C13.2356 8.53053 13.1672 8.5464 13.093 8.56086C13.0512 8.56906 13.0189 8.6018 13.0121 8.64309C13.0053 8.68441 13.0253 8.72555 13.0623 8.74629C13.0655 8.74805 13.1003 8.76745 13.1538 8.78976C12.9561 8.8679 12.6032 8.96995 12.0241 9.02596C11.968 9.03144 11.9269 9.08063 11.9325 9.13564C11.938 9.19069 11.9865 9.22887 12.0443 9.22573C13.1436 9.119 13.483 8.84896 13.4969 8.83738C13.5286 8.81131 13.5412 8.76883 13.5286 8.73007C13.5203 8.70443 13.5019 8.68369 13.4783 8.67169C13.8295 8.56319 13.9803 8.44312 13.9882 8.43668C14.0267 8.40532 14.0364 8.35112 14.011 8.3086C13.9855 8.26608 13.9323 8.24768 13.8859 8.26608C13.8729 8.27099 13.852 8.27605 13.8257 8.28115C14.0614 8.12274 14.3116 7.93409 14.4216 7.8499C14.4409 7.83583 14.4585 7.82226 14.474 7.80953C14.5167 7.7743 14.5227 7.71196 14.4874 7.66952C14.4524 7.62724 14.3886 7.62015 14.3449 7.65404C14.329 7.66638 14.3124 7.67911 14.2952 7.69222C14.2444 7.72925 14.1795 7.77116 14.1086 7.81421C14.3761 7.51614 14.6454 7.193 14.7223 7.10018C14.7293 7.09175 14.7362 7.08335 14.7432 7.07492C14.7785 7.03183 14.7716 6.96877 14.7277 6.93411C14.6837 6.89888 14.6194 6.90612 14.5841 6.94898L14.5839 6.94921L14.5838 6.94945C14.5819 6.95159 14.5733 6.96217 14.5587 6.97981C14.4781 7.07634 14.3933 7.1698 14.3096 7.2571C14.5821 6.77241 14.7884 6.2953 14.8186 6.22461C14.8197 6.22208 14.8207 6.21955 14.8218 6.21694C14.8435 6.16622 14.8189 6.10745 14.7667 6.08629ZM9.97808 9.46633L10.006 9.4699C9.97176 9.5013 9.9439 9.53649 9.92179 9.57283C9.87328 9.569 9.82926 9.56563 9.79476 9.56413C9.8423 9.53365 9.90347 9.50057 9.97808 9.46633Z" fill="#FFE15A"/>
</svg>
