<?xml version="1.0" encoding="utf-8"?><svg xmlns="http://www.w3.org/2000/svg" xmlns:xlink="http://www.w3.org/1999/xlink"><symbol viewBox="0 0 34 24" id="arrow-down" xmlns="http://www.w3.org/2000/svg"><path d="M26.406 14.231l-1.154-.933-7.928 8.194V0h-1.539v21.492l-7.928-8.194-1.149.933L16.16 24h.795l9.451-9.769z"/></symbol><symbol viewBox="0 0 37 15" id="nav-next-mobile" xmlns="http://www.w3.org/2000/svg"><path d="M.664 1h33L21.025 14"/></symbol><symbol viewBox="0 0 37 15" id="nav-prev-mobile" xmlns="http://www.w3.org/2000/svg"><path d="M36.336 14h-33L15.975 1"/></symbol><symbol viewBox="0 0 34 35" id="refresh" xmlns="http://www.w3.org/2000/svg"><path d="M31.167 17.5l-4.25 4.25-4.25-4.25"/><path d="M15.583 28.833C9.324 28.833 4.25 23.76 4.25 17.5c0-6.26 5.074-11.333 11.333-11.333 6.26 0 11.334 5.074 11.334 11.333v2.833"/></symbol><symbol viewBox="0 0 20 20" id="search" xmlns="http://www.w3.org/2000/svg"><path d="M12.195 3.704a6.192 6.192 0 010 8.756l1.06 1.061a7.692 7.692 0 000-10.877l-1.06 1.06zm0 8.756a6.192 6.192 0 01-8.756 0l-1.061 1.061a7.691 7.691 0 0010.877 0l-1.06-1.06zm-8.756 0a6.191 6.191 0 010-8.756l-1.061-1.06a7.692 7.692 0 000 10.877l1.06-1.06zm0-8.756a6.191 6.191 0 018.756 0l1.06-1.06a7.691 7.691 0 00-10.877 0l1.06 1.06zm8.687 9.474l6.041 6.04 1.06-1.06-6.04-6.04-1.06 1.06z"/></symbol></svg>