<svg width="359" height="430" viewBox="0 0 359 430" fill="none" xmlns="http://www.w3.org/2000/svg">
<path d="M90.193 402V404H91.2505L91.8458 403.126L90.193 402ZM303.027 89.6242H305.027V83.1368L301.374 88.498L303.027 89.6242ZM303.027 402H301.027V404H303.027V402ZM342.624 402V404H344.624V402H342.624ZM342.624 17.0298H344.624V15.0298H342.624V17.0298ZM307.426 17.0298V15.0298H306.369L305.773 15.9036L307.426 17.0298ZM94.5927 329.406H92.5927V335.893L96.2455 330.532L94.5927 329.406ZM94.5927 17.0298H96.5927V15.0298H94.5927V17.0298ZM54.9957 17.0298V15.0298H52.9957V17.0298H54.9957ZM54.9957 402H52.9957V404H54.9957V402ZM91.8458 403.126L304.679 90.7503L301.374 88.498L88.5402 400.874L91.8458 403.126ZM301.027 89.6242V402H305.027V89.6242H301.027ZM303.027 404H342.624V400H303.027V404ZM344.624 402V17.0298H340.624V402H344.624ZM342.624 15.0298H307.426V19.0298H342.624V15.0298ZM305.773 15.9036L92.9399 328.279L96.2455 330.532L309.079 18.1559L305.773 15.9036ZM96.5927 329.406V17.0298H92.5927V329.406H96.5927ZM94.5927 15.0298H54.9957V19.0298H94.5927V15.0298ZM52.9957 17.0298V402H56.9957V17.0298H52.9957ZM54.9957 404H90.193V400H54.9957V404Z" fill="black"/>
</svg>
