<svg width="15" height="19" viewBox="0 0 15 19" fill="none" xmlns="http://www.w3.org/2000/svg">
<path opacity="0.3" d="M7.5 1C5.75516 1.02475 4.09158 1.71466 2.87342 2.91868C1.65526 4.12271 0.981766 5.74277 1.00038 7.42421C1.00038 11.9292 6.80361 18 7.5 18C8.19639 18 13.9996 11.9292 13.9996 7.42421C14.0182 5.74277 13.3447 4.12271 12.1266 2.91868C10.9084 1.71466 9.24484 1.02475 7.5 1ZM7.5 9.94737C6.76123 9.94737 6.05271 9.66457 5.53032 9.16118C5.00792 8.6578 4.71445 7.97506 4.71445 7.26316C4.71445 6.55126 5.00792 5.86852 5.53032 5.36513C6.05271 4.86175 6.76123 4.57895 7.5 4.57895C8.23878 4.57895 8.94729 4.86175 9.46968 5.36513C9.99208 5.86852 10.2856 6.55126 10.2856 7.26316C10.2856 7.97506 9.99208 8.6578 9.46968 9.16118C8.94729 9.66457 8.23878 9.94737 7.5 9.94737Z" stroke="black" stroke-width="1.5"/>
</svg>
