<svg width="20" height="13" viewBox="0 0 20 13" fill="none" xmlns="http://www.w3.org/2000/svg">
<path d="M19.707 4.38243V0.902387C19.707 0.56319 19.4266 0.288269 19.0808 0.288269H0.919219C0.573359 0.288269 0.292969 0.563228 0.292969 0.902387V4.38243L1.23223 5.20129H18.7677L19.707 4.38243Z" fill="#F2F2F6"/>
<path d="M1.23234 0.287262H0.919219C0.573359 0.287262 0.292969 0.562221 0.292969 0.90138V4.38142L1.23219 5.20028H1.23234V0.287262Z" fill="#E1E1E6"/>
<path d="M0.292969 8.47575V11.9558C0.292969 12.295 0.573359 12.5699 0.919219 12.5699H19.0807C19.4266 12.5699 19.707 12.2949 19.707 11.9558V8.47575L18.7677 7.65692H1.23234L0.292969 8.47575Z" fill="#E5646E"/>
<path d="M1.23234 10.1134V7.92985V7.65692L0.292969 8.47575V11.9558C0.292969 12.295 0.573398 12.5699 0.919219 12.5699H19.0807C19.4266 12.5699 19.707 12.2949 19.707 11.9558V11.6487H2.79801C1.93473 11.6487 1.23234 10.96 1.23234 10.1134Z" fill="#DB4655"/>
<path d="M0.292969 4.3815H19.707V8.4757H0.292969V4.3815Z" fill="#5055A0"/>
<path d="M0.292969 4.3815H1.23234V8.4757H0.292969V4.3815Z" fill="#3F3F8F"/>
<path d="M19.0808 0H0.919219C0.412383 0 0 0.404394 0 0.90145V11.9557C0 12.4528 0.412383 12.8571 0.919219 12.8571H19.0808C19.5877 12.8571 20 12.4527 20 11.9557V0.90145C20 0.404394 19.5876 0 19.0808 0ZM19.0808 12.2826H0.919219C0.73543 12.2826 0.585938 12.136 0.585938 11.9558V8.76302H1.54551C1.7073 8.76302 1.83848 8.63439 1.83848 8.47573C1.83848 8.31707 1.7073 8.18843 1.54551 8.18843H0.585938V4.66882H17.5152C17.677 4.66882 17.8082 4.54019 17.8082 4.38153C17.8082 4.22287 17.677 4.09424 17.5152 4.09424H0.585938V0.90145C0.585938 0.721221 0.735469 0.574625 0.919219 0.574625H19.0808C19.2646 0.574625 19.4141 0.721221 19.4141 0.90145V4.0942H18.7677C18.6059 4.0942 18.4747 4.22283 18.4747 4.38149C18.4747 4.54015 18.6059 4.66879 18.7677 4.66879H19.4141V8.1884H2.79801C2.63621 8.1884 2.50504 8.31703 2.50504 8.47569C2.50504 8.63435 2.63621 8.76298 2.79801 8.76298H19.4141V11.9557C19.4141 12.136 19.2645 12.2826 19.0808 12.2826Z" fill="black"/>
</svg>
