<?xml version="1.0" encoding="utf-8"?><svg viewBox="0 0 502.66 502.66" xmlns="http://www.w3.org/2000/svg" xmlns:xlink="http://www.w3.org/1999/xlink"><style>:root>svg{display:none}:root>svg:target{display:block}</style><svg viewBox="0 0 502.664 502.664" id="icon" xmlns="http://www.w3.org/2000/svg"><path d="M153.821 358.226L0 274.337v-46.463l153.821-83.414v54.574L46.636 250.523l107.185 53.431v54.272zm26.273 29.358L282.103 115.08h32.227L212.084 387.584h-31.99zm168.749-29.358v-54.272l107.164-52.999-107.164-52.59v-53.927l153.821 83.522v46.183l-153.821 84.083z"/></svg><svg viewBox="0 0 100 50" id="logo" xmlns="http://www.w3.org/2000/svg"><path d="M52.201 28.636l-.297.668c-.643.415-1.218.684-1.725.807a5.67 5.67 0 01-1.346.186 5.244 5.244 0 01-2.115-.436c-.662-.29-1.203-.783-1.623-1.475-.415-.693-.622-1.528-.622-2.505 0-.65.08-1.234.241-1.754.161-.525.328-.915.501-1.168.18-.254.48-.535.9-.845a5.93 5.93 0 011.336-.742c.47-.186.977-.278 1.522-.278.742 0 1.394.176 1.957.529.57.346.968.791 1.197 1.335.229.545.343 1.123.343 1.735 0 .192-.01.378-.028.557l-.102.102c-.42.093-.986.155-1.697.186-.712.03-1.182.046-1.41.046h-2.979c.013 1.28.334 2.224.965 2.83.631.606 1.404.909 2.32.909.432 0 .847-.075 1.243-.223a7.698 7.698 0 001.27-.622l.15.158zm-5.947-3.794c.112.018.538.04 1.28.065.749.024 1.303.037 1.661.037.86 0 1.383-.016 1.568-.046a8.83 8.83 0 00.01-.344c0-.958-.195-1.67-.585-2.134-.39-.47-.922-.705-1.596-.705-.736 0-1.31.263-1.725.789-.408.526-.613 1.305-.613 2.338zm7.466-9.09c2.051.065 3.357.097 3.919.097.765 0 1.623-.02 2.575-.06a84.812 84.812 0 011.868-.05c1.14 0 2.08.118 2.82.354a3.722 3.722 0 011.855 1.294c.489.627.733 1.384.733 2.27 0 .733-.171 1.441-.513 2.125a5.099 5.099 0 01-1.428 1.745c-.61.48-1.229.826-1.856 1.038a6.284 6.284 0 01-1.953.305 9.367 9.367 0 01-1.684-.17l-.208-.745.11-.122c.61.138 1.107.207 1.49.207 1.065 0 1.92-.35 2.563-1.05.65-.708.976-1.611.976-2.71 0-1.107-.337-1.99-1.013-2.649-.667-.659-1.68-.988-3.04-.988-.74 0-1.554.138-2.44.415-.074.626-.11 2.14-.11 4.54v5.652l.011 2.38c.009.92.033 1.515.074 1.783.04.269.097.448.17.537.082.09.233.167.452.232.22.057.761.102 1.624.134l.097.074V33l-.097.098A239.993 239.993 0 0057.21 33c-.276 0-1.44.033-3.49.098L53.622 33v-.61l.097-.074c.757-.032 1.262-.073 1.514-.122s.419-.11.5-.183c.09-.081.16-.248.208-.5.057-.252.09-.814.098-1.685l.012-2.576V21.6l-.025-2.38c-.008-.928-.032-1.527-.073-1.795-.032-.269-.09-.448-.17-.537-.074-.09-.22-.163-.44-.22-.22-.057-.761-.102-1.624-.134l-.097-.086v-.61l.097-.085z"/><path d="M51.435 32.524l-.557 1.363a15.094 15.094 0 01-6.943 1.655c-3.526 0-6.392-1.001-8.6-3.003-2.196-2.002-3.295-4.62-3.295-7.852 0-2.226.547-4.17 1.64-5.83 1.104-1.67 2.554-2.915 4.351-3.735 1.807-.83 3.833-1.245 6.08-1.245 1.298 0 2.582.137 3.852.41 1.27.273 2.329.6 3.179.982l.102.146c-.224.547-.434 1.9-.63 4.058l-.102.117h-.689l-.117-.117-.146-2.49c-.713-.567-1.578-1.006-2.593-1.319a10.258 10.258 0 00-3.15-.483c-1.65 0-3.13.356-4.438 1.069-1.309.703-2.324 1.729-3.047 3.076-.723 1.338-1.084 2.979-1.084 4.922 0 1.953.425 3.667 1.275 5.142.85 1.474 2.006 2.607 3.471 3.398 1.475.791 3.194 1.187 5.156 1.187.87 0 1.705-.083 2.505-.25.801-.165 1.465-.37 1.992-.615a9.003 9.003 0 001.538-.893l.25.307z"/><path d="M.725 19C3.412 8.09 13.26 0 25 0h50c11.739 0 21.588 8.09 24.275 19H79.837C77.463 13.136 71.715 9 65 9H35c-6.715 0-12.463 4.136-14.837 10H.725zm0 12C3.412 41.91 13.26 50 25 50h50c11.739 0 21.588-8.09 24.275-19H79.837C77.463 36.864 71.715 41 65 41H35c-6.715 0-12.463-4.136-14.837-10H.725z"/></svg></svg>