<?xml version="1.0" encoding="utf-8"?><svg viewBox="0 0 80 80" xmlns="http://www.w3.org/2000/svg" xmlns:xlink="http://www.w3.org/1999/xlink"><style>:root>svg{display:none}:root>svg:target{display:block}</style><svg viewBox="0 0 10 12" id="geolocation" xmlns="http://www.w3.org/2000/svg"><path fill-rule="evenodd" clip-rule="evenodd" d="M4.105.025A4.741 4.741 0 001.735 1a6.514 6.514 0 00-.703.699A4.666 4.666 0 000 4.593c0 .875.288 1.828.766 2.534.075.112.922 1.253 1.882 2.538L4.394 12h.4l1.747-2.335a270.64 270.64 0 001.882-2.538c.075-.11.203-.335.283-.498.635-1.28.64-2.764.016-4.04A4.6 4.6 0 004.105.025zm.806 3.08a1.571 1.571 0 011.172 1.171c.072.343.028.67-.132.997-.137.28-.397.539-.677.676a1.474 1.474 0 01-1.36 0 1.553 1.553 0 01-.676-.676 1.474 1.474 0 010-1.36 1.58 1.58 0 011.028-.807c.201-.044.442-.044.645-.002z"/></svg><svg viewBox="0 0 60 60" id="services-icon-1" xmlns="http://www.w3.org/2000/svg"><g clip-path="url(#ba)"><path d="M44.18 3.502c-6.785 0-12.305 5.52-12.305 12.305s5.52 12.305 12.305 12.305 12.304-5.52 12.304-12.305S50.964 3.502 44.18 3.502zm0 22.852c-5.816 0-10.547-4.731-10.547-10.547 0-5.815 4.731-10.547 10.547-10.547 5.815 0 10.547 4.732 10.547 10.547 0 5.816-4.732 10.547-10.547 10.547zM15.82 56.471c6.785 0 12.305-5.52 12.305-12.305 0-6.784-5.52-12.304-12.305-12.304-6.784 0-12.304 5.52-12.304 12.304 0 6.785 5.52 12.305 12.304 12.305zm0-22.851c5.816 0 10.547 4.731 10.547 10.547 0 5.815-4.731 10.546-10.547 10.546-5.815 0-10.547-4.73-10.547-10.546 0-5.816 4.732-10.547 10.547-10.547zm19.111 2.535l1.259-1.227 1.227 1.258-1.259 1.227-1.227-1.258z"/><path d="M21.038 46.078l-1.243-1.243-2.063 2.063-5.886-5.886-1.243 1.243 7.129 7.129 3.306-3.306zM45.839 14.39a2.96 2.96 0 00-.86-2.212 2.955 2.955 0 00-2.212-.859 3.215 3.215 0 00-2.18.946L38.4 14.453l7.133 7.135 1.243-1.242-2.593-2.594 5.252.335.112-1.755-4.24-.27c.328-.495.514-1.07.533-1.672zm-4.954.063l.945-.945a1.49 1.49 0 01.992-.432c.356-.01.68.112.914.345.234.234.357.559.346.914a1.486 1.486 0 01-.435.995l-.939.947-1.823-1.824zm4.423-6.792h1.758V9.42h-1.758V7.661zm3.516 1.758h1.757v1.758h-1.758V9.419z"/><path d="M60 15.834C60 7.11 52.903.014 44.18.014c-8.672 0-15.735 7.012-15.819 15.664-1.256 4.406-8.261 11.412-12.668 12.67A15.798 15.798 0 005.348 32.31l1.164 1.317a14.044 14.044 0 019.308-3.523c7.755 0 14.063 6.308 14.063 14.062 0 7.755-6.308 14.063-14.063 14.063-7.754 0-14.062-6.309-14.062-14.063a14.04 14.04 0 013.552-9.34l-1.314-1.169A15.796 15.796 0 000 44.167c0 8.723 7.097 15.82 15.82 15.82 8.68 0 15.748-7.026 15.819-15.69.443-1.553 1.652-3.545 3.42-5.625l-1.34-1.139c-.967 1.14-1.785 2.268-2.425 3.337-1.295-6.084-6.096-10.884-12.18-12.178 1.711-1.024 3.564-2.496 5.33-4.261 1.763-1.764 3.233-3.614 4.257-5.322 1.286 6.082 6.076 10.885 12.15 12.191a25.409 25.409 0 00-3.3 2.403l1.137 1.34c2.039-1.73 3.992-2.926 5.53-3.39C52.924 31.633 60 24.544 60 15.833zM44.18 29.896c-7.754 0-14.063-6.309-14.063-14.063 0-7.754 6.309-14.062 14.063-14.062 7.754 0 14.062 6.308 14.062 14.062S51.934 29.896 44.18 29.896z"/></g><defs><clipPath id="ba"><path d="M0 0h60v60H0z"/></clipPath></defs></svg><svg viewBox="0 0 60 50" id="services-icon-2" xmlns="http://www.w3.org/2000/svg"><path d="M15.82 27.996c-4.846 0-8.789 3.943-8.789 8.789s3.943 8.789 8.79 8.789c4.846 0 8.788-3.943 8.788-8.789s-3.942-8.79-8.789-8.79zm0 15.82a7.04 7.04 0 01-7.03-7.031 7.04 7.04 0 017.03-7.031 7.04 7.04 0 017.032 7.031 7.04 7.04 0 01-7.032 7.031z"/><path d="M57.363 31.512h-2.067c-1.859-3.904-5.714-6.68-10.237-7v-.91a2.64 2.64 0 00-2.637-2.637H36.27a2.64 2.64 0 00-2.637 2.636v6.844a12.25 12.25 0 00-1.007 2.106H30.88v-19.4a6.164 6.164 0 004.376-2.892h3.651V8.501h-2.925a6.143 6.143 0 00-.19-3.515h11.025V8.5H44.18v1.758h12.304A3.52 3.52 0 0060 6.744a3.52 3.52 0 00-3.516-3.516H34.806a6.143 6.143 0 00-9.612 0H3.516A3.52 3.52 0 000 6.744a3.52 3.52 0 003.516 3.515h21.23a6.164 6.164 0 004.375 2.892v19.4h-1.747a12.248 12.248 0 00-1.007-2.106v-6.843a2.64 2.64 0 00-2.637-2.637h-6.152a2.64 2.64 0 00-2.637 2.637v.91c-4.523.32-8.378 3.097-10.237 7H2.637A2.64 2.64 0 000 34.148v5.274a2.64 2.64 0 002.637 2.637h2.067c1.978 4.153 6.217 7.03 11.116 7.03 4.697 0 8.786-2.644 10.86-6.522a5.337 5.337 0 003.32 1.15c1.225 0 2.383-.41 3.32-1.15 2.074 3.878 6.163 6.523 10.86 6.523 4.899 0 9.138-2.878 11.116-7.031h2.067A2.64 2.64 0 0060 39.422v-5.273a2.64 2.64 0 00-2.637-2.637zM48.574 4.986h1.758V8.5h-1.758V4.986zm9.668 1.758A1.76 1.76 0 0156.484 8.5H52.09V4.986h4.394c.97 0 1.758.788 1.758 1.758zM11.426 4.986V8.5H9.668V4.986h1.758zM1.758 6.744c0-.97.788-1.758 1.758-1.758H7.91V8.5H3.516a1.76 1.76 0 01-1.758-1.757zM13.184 8.5V4.986h11.025a6.122 6.122 0 00-.19 3.515H13.184zm12.421-1.438A4.4 4.4 0 0130 2.668a4.4 4.4 0 014.395 4.395A4.4 4.4 0 0130 11.457a4.4 4.4 0 01-4.395-4.394zM4.027 40.3h-1.39a.88.88 0 01-.88-.88v-5.273a.88.88 0 01.88-.879h1.39a12.267 12.267 0 00-.511 3.516c0 1.221.178 2.401.511 3.516zm31.364-16.7a.88.88 0 01.879-.878h6.152a.88.88 0 01.879.878v.88h-7.91v-.88zm-3.265 10.71c-.108.525-.18 1.059-.22 1.597h-3.813a12.312 12.312 0 00-.219-1.597h4.252zM15.82 47.332c-5.815 0-10.547-4.732-10.547-10.547 0-5.816 4.732-10.547 10.547-10.547h3.516V24.48h-2.637v-.879a.88.88 0 01.88-.878h6.151a.88.88 0 01.88.878v.88h-3.516v1.757h3.515v4.71l.136.215a10.515 10.515 0 011.622 5.622c0 5.816-4.731 10.547-10.547 10.547zM30 41.959c-.979 0-1.895-.39-2.576-1.08.36-1.017.59-2.096.67-3.215h3.813c.08 1.12.31 2.197.67 3.215A3.598 3.598 0 0130 41.959zm14.18 5.373c-5.816 0-10.547-4.732-10.547-10.547 0-1.997.56-3.94 1.622-5.621l.136-.216v-4.71h8.789c5.815 0 10.546 4.732 10.546 10.547 0 5.816-4.73 10.547-10.546 10.547zm14.062-7.91a.88.88 0 01-.879.879h-1.39c.333-1.115.511-2.295.511-3.516s-.178-2.401-.511-3.516h1.39a.88.88 0 01.88.88v5.273z"/><path d="M44.18 27.996c-4.847 0-8.79 3.943-8.79 8.789s3.943 8.789 8.79 8.789c4.846 0 8.789-3.943 8.789-8.789s-3.943-8.79-8.79-8.79zm0 15.82a7.04 7.04 0 01-7.032-7.031 7.04 7.04 0 017.032-7.031 7.04 7.04 0 017.03 7.031 7.04 7.04 0 01-7.03 7.031zM40.664 8.501h1.758v1.758h-1.758V8.501zM29.121 5.865h1.758v1.757H29.12V5.865z"/><path d="M46.816 33.404h1.758v1.757h-1.758v-1.757zM43.3 31.646h1.759v1.758H43.3v-1.758z"/></svg><svg viewBox="0 0 80 80" id="services-icon-3" xmlns="http://www.w3.org/2000/svg"><path d="M30.772 29.747c-6.154-1.305-12.664-1.486-19.35-.54a5.238 5.238 0 00-3.535 2.13 5.208 5.208 0 00-.92 3.998c.114.644.227 1.245.335 1.788.488 2.453 1.017 4.665 1.574 6.573.849 2.913 3.193 5.092 6.12 5.688l.201.04c1.105.218 2.232.328 3.35.328 7.452 0 14.074-4.768 16.478-11.865l.145-.432a5.935 5.935 0 00-4.398-7.708zm2.8 7.178l-.142.421c-2.172 6.413-8.153 10.722-14.884 10.722-1.008 0-2.025-.1-3.02-.295l-.196-.04c-2.31-.47-4.164-2.198-4.837-4.508-.543-1.862-1.06-4.025-1.54-6.43a85.269 85.269 0 01-.328-1.754c-.17-.96.052-1.925.626-2.716a3.568 3.568 0 012.408-1.45c6.49-.919 12.803-.744 18.763.52a4.254 4.254 0 013.15 5.53z"/><path d="M30.24 32.252c-3.368-.715-6.908-1.077-10.52-1.077-.957 0-1.937.026-2.912.078a.842.842 0 10.089 1.682c.945-.05 1.895-.076 2.823-.076 3.495 0 6.917.35 10.171 1.04a1.68 1.68 0 011.127.822c.241.424.288.912.132 1.374a.842.842 0 101.595.54c.313-.925.22-1.9-.264-2.748a3.345 3.345 0 00-2.24-1.635zm42.458 4.871c.108-.542.22-1.144.335-1.788a5.207 5.207 0 00-.92-3.999 5.237 5.237 0 00-3.536-2.128c-6.686-.947-13.196-.766-19.35.539a5.936 5.936 0 00-4.4 7.708l.148.431C47.378 44.984 54 49.752 61.453 49.752c1.118 0 2.244-.11 3.352-.328l.2-.04c2.925-.596 5.27-2.775 6.119-5.688.556-1.907 1.086-4.118 1.574-6.573zm-3.19 6.102c-.674 2.31-2.528 4.038-4.836 4.508l-.195.039c-.998.197-2.015.296-3.024.296-6.73 0-12.71-4.309-14.883-10.722l-.145-.43a4.25 4.25 0 013.153-5.522 51.444 51.444 0 0110.682-1.099c2.653 0 5.352.193 8.081.58a3.568 3.568 0 012.408 1.45c.574.79.796 1.755.626 2.715a86.734 86.734 0 01-.329 1.754c-.479 2.407-.997 4.57-1.539 6.43z"/><path d="M68.218 31.743a56.83 56.83 0 00-7.938-.568c-1.01 0-2.028.029-3.026.086a.842.842 0 00.096 1.681 51.853 51.853 0 012.93-.083c2.528 0 5.12.186 7.702.552.282.04.528.188.694.417a.985.985 0 01.177.766.842.842 0 001.658.294 2.667 2.667 0 00-.471-2.049 2.697 2.697 0 00-1.822-1.096z"/><path d="M79.803 53.123l-6.534-7.795c.117-.299.222-.603.313-.915 1.3-4.46 2.137-9.432 2.422-11.262h1.665a.842.842 0 00.842-.842v-4.097a.842.842 0 00-.604-.808c-15.64-4.613-27.698-2.111-33.494-.21a14.037 14.037 0 01-8.826 0c-5.796-1.901-17.853-4.404-33.494.21a.842.842 0 00-.604.808v4.097c0 .465.377.842.842.842h1.665c.285 1.83 1.122 6.802 2.422 11.262.09.312.196.617.313.915L.197 53.123a.843.843 0 00.212 1.263 5.76 5.76 0 002.97.829c1.526 0 3.03-.613 4.154-1.788l3.062-3.204a10.67 10.67 0 003.971 1.686l.136.027a19.68 19.68 0 003.815.373c7.351 0 14.213-4.123 17.675-10.677l7.133-.988C46.598 47.768 53.77 52.31 61.483 52.31a19.72 19.72 0 003.813-.373l.119-.023c1.46-.293 2.81-.877 3.988-1.691l3.063 3.205a5.734 5.734 0 004.154 1.788 5.765 5.765 0 002.97-.829.842.842 0 00.212-1.263zm-73.487-.86a4.049 4.049 0 01-4.115 1.09l5.344-6.374a10.66 10.66 0 001.742 2.175l-2.971 3.11zm30.718-12.448c.148-.363.289-.731.416-1.107.432-1.277.814-2.41 1.1-3.263a1.528 1.528 0 012.9 0c.286.853.667 1.986 1.1 3.263.037.11.079.218.118.327l-5.634.78zm28.051 10.447l-.113.022c-8.937 1.762-17.891-3.448-20.827-12.117-.432-1.274-.813-2.407-1.099-3.258A3.21 3.21 0 0040 32.72a3.21 3.21 0 00-3.046 2.19c-.286.852-.667 1.984-1.099 3.258-2.936 8.67-11.89 13.878-20.827 12.117l-.13-.026a8.982 8.982 0 01-6.863-6.316c-1.587-5.444-2.471-11.687-2.48-11.75a.842.842 0 00-.834-.725H3.173v-2.622c14.908-4.246 26.354-1.867 31.888-.05a15.728 15.728 0 009.878 0c5.534-1.817 16.98-4.195 31.888.05v2.622h-1.548c-.42 0-.776.31-.834.725-.009.063-.892 6.302-2.48 11.75a8.992 8.992 0 01-6.88 6.32zm8.6 2.002l-2.973-3.111a10.668 10.668 0 001.742-2.175l5.345 6.376a4.049 4.049 0 01-4.115-1.09z"/></svg></svg>