<svg width="21" height="18" viewBox="0 0 21 18" fill="none" xmlns="http://www.w3.org/2000/svg">
<path d="M10.1441 16.337C10.1441 17.2554 9.36331 18 8.40011 18C7.43692 18 6.65612 17.2554 6.65612 16.337C6.65612 15.4186 7.43693 14.674 8.40012 14.674C9.36332 14.674 10.1441 15.4186 10.1441 16.337ZM15.4617 14.674C14.4985 14.674 13.7177 15.4186 13.7177 16.337C13.7177 17.2555 14.4985 18 15.4617 18C16.4249 18 17.2057 17.2555 17.2057 16.337C17.2057 15.4186 16.4249 14.674 15.4617 14.674ZM20.8752 6.86731L18.7292 12.9492C18.7292 12.9492 18.5516 13.8518 17.6465 13.8518C16.7415 13.8518 7.89052 13.8518 6.81042 13.8518C5.73031 13.8518 5.68492 12.7205 5.68492 12.7205C5.68492 12.7205 4.5335 4.57501 4.47644 4.08291C4.41939 3.59082 3.7594 3.22608 3.7594 3.22608L0.919727 1.96123C-0.634958 1.186 0.0717143 -0.289047 0.919727 0.0497337C4.52053 1.66943 6.19321 2.46692 6.30084 3.10491C6.40976 3.74413 6.59906 5.28347 6.59906 5.28347V5.29336C6.62111 5.28718 6.63667 5.28347 6.63667 5.28347C6.63667 5.28347 17.679 5.28347 19.9092 5.28347C21.5119 5.28347 20.8752 6.86979 20.8752 6.86731ZM17.771 10.2539L17.749 10.2551H7.2435L7.46004 11.8921H17.2601L17.771 10.2539ZM18.7941 6.95263H6.80912L7.03993 8.70216C9.33889 8.70216 16.0711 8.70216 18.2521 8.70216L18.7941 6.95263Z" fill="#090509"/>
</svg>
