<svg width="21" height="18" viewBox="0 0 21 18" fill="none" xmlns="http://www.w3.org/2000/svg">
<path d="M10.5 18C10.201 18 9.9128 17.8957 9.68818 17.7061C8.83983 16.9914 8.02192 16.3198 7.3003 15.7274L7.29662 15.7243C5.18095 13.9873 3.35399 12.4873 2.08282 11.0096C0.661858 9.35765 0 7.79138 0 6.08032C0 4.41788 0.591682 2.88418 1.66594 1.76153C2.75301 0.625613 4.24464 0 5.86652 0C7.07872 0 8.18887 0.369224 9.16603 1.09733C9.65918 1.46486 10.1062 1.91466 10.5 2.43932C10.894 1.91466 11.3408 1.46486 11.8341 1.09733C12.8113 0.369224 13.9214 0 15.1336 0C16.7554 0 18.2471 0.625613 19.3342 1.76153C20.4085 2.88418 21 4.41788 21 6.08032C21 7.79138 20.3383 9.35765 18.9173 11.0094C17.6462 12.4873 15.8194 13.9872 13.704 15.724C12.9811 16.3173 12.1619 16.99 11.3117 17.7064C11.0872 17.8957 10.7988 18 10.5 18ZM5.86652 1.18516C4.59231 1.18516 3.42176 1.67509 2.57021 2.56481C1.70599 3.46796 1.22999 4.71641 1.22999 6.08032C1.22999 7.5194 1.78514 8.80643 3.02987 10.2534C4.23294 11.652 6.02241 13.1212 8.09434 14.8224L8.09818 14.8255C8.82253 15.4202 9.64364 16.0944 10.4982 16.8144C11.358 16.0931 12.1804 15.4177 12.9061 14.8221C14.9779 13.1209 16.7672 11.652 17.9703 10.2534C19.2149 8.80643 19.77 7.5194 19.77 6.08032C19.77 4.71641 19.294 3.46796 18.4298 2.56481C17.5784 1.67509 16.4077 1.18516 15.1336 1.18516C14.2002 1.18516 13.3432 1.47103 12.5865 2.03475C11.9122 2.53734 11.4424 3.17268 11.167 3.61723C11.0254 3.84583 10.7761 3.98228 10.5 3.98228C10.2239 3.98228 9.97465 3.84583 9.83302 3.61723C9.55776 3.17268 9.08801 2.53734 8.41349 2.03475C7.65678 1.47103 6.79978 1.18516 5.86652 1.18516Z" fill="black"/>
</svg>
