<?xml version="1.0" encoding="utf-8"?><svg viewBox="0 0 40 42" xmlns="http://www.w3.org/2000/svg" xmlns:xlink="http://www.w3.org/1999/xlink"><style>:root>svg{display:none}:root>svg:target{display:block}</style><svg viewBox="0 0 30 17" id="arrow-down" xmlns="http://www.w3.org/2000/svg"><path d="M1 1.706l14 14 14-14"/></svg><svg viewBox="0 0 40 20" id="arrow-right" xmlns="http://www.w3.org/2000/svg"><path d="M23.385 1L38 10l-14.615 9M0 10h37.026"/></svg><svg viewBox="0 0 22 20" id="calculation" xmlns="http://www.w3.org/2000/svg"><path d="M20.714 8.765h-20v10.37h20V8.765zm-17.037 0v5.926M7.38 8.765v2.222m2.964-2.222v5.926m3.704-5.926v2.222m2.962-2.222v5.926M.714 8.765V1.357m20 8.148V1.357m-20 2.223h20M3.677 1.357L.714 3.58l2.963 2.223M17.01 1.357l3.704 2.222-3.703 2.223"/></svg><svg viewBox="0 0 23 20" id="calculator" xmlns="http://www.w3.org/2000/svg"><path d="M21.5.91h-20v17.931h20V.911zM11.155 9.876v8.965M1.5 9.876h19.31M6.328 12.634v3.449m-2.069-2.07h4.138m5.517-.689h4.827m-4.827 2.069h4.827"/></svg><svg viewBox="0 0 31 21" id="dollar" xmlns="http://www.w3.org/2000/svg"><path clip-rule="evenodd" d="M11 19.312h14.286c2.857 0 4.285-1.428 4.285-4.285v-10c0-1.429-1.428-4.286-4.285-4.286H11C9.571.74 7.625 1.9 6.714 3.598 3.562 4.339.937 6.303.937 10.589c0 2.857 2.92 5.866 5.777 5.866 1.429 1.429 2.857 2.857 4.286 2.857z"/><path d="M7.955 13.223a2.857 2.857 0 100-5.714 2.857 2.857 0 000 5.714zm8.759 1.804v-10s3.715 0 3.715 2.857-3.286 2.857-3.286 2.857m-1.857 2.857h3.286"/></svg><svg viewBox="0 0 27 24" id="message" xmlns="http://www.w3.org/2000/svg"><path clip-rule="evenodd" d="M5 .75h18.75c1.25 0 2.5 1.25 2.5 3.75V17c0 1.25-1.25 2.5-2.5 2.5H20s1.25 2.5-2.5 3.75c1.25-1.25-1.25-3.75-1.25-3.75H5c-2.5 0-3.75-1.25-3.75-2.5V4.5C1.25 2 2.5.75 5 .75z"/><path d="M6.25 7H22.5M6.25 10.75h7.5m-7.5 3.75H17.5"/></svg><svg viewBox="0 0 22 42" id="products-arrow" xmlns="http://www.w3.org/2000/svg"><path d="M.5 1l20 20-20 20"/><path d="M.5 1l20 20-20 20"/></svg></svg>