<svg width="25" height="25" viewBox="0 0 25 25" fill="none" xmlns="http://www.w3.org/2000/svg">
<path d="M24.6945 23.2216L17.5852 16.1123C18.9623 14.4113 19.7914 12.2499 19.7914 9.89574C19.7914 4.43955 15.3519 0 9.89569 0C4.4395 0 0 4.4395 0 9.89569C0 15.3519 4.43955 19.7914 9.89574 19.7914C12.2499 19.7914 14.4113 18.9623 16.1123 17.5852L23.2216 24.6945C23.4247 24.8976 23.6914 24.9997 23.9581 24.9997C24.2248 24.9997 24.4914 24.8976 24.6946 24.6945C25.1018 24.2872 25.1018 23.6289 24.6945 23.2216ZM9.89574 17.7081C5.58744 17.7081 2.08333 14.204 2.08333 9.89569C2.08333 5.58739 5.58744 2.08328 9.89574 2.08328C14.204 2.08328 17.7082 5.58739 17.7082 9.89569C17.7082 14.204 14.204 17.7081 9.89574 17.7081Z" fill="#9C9898"/>
</svg>
