<svg width="16" height="16" viewBox="0 0 16 16" fill="none" xmlns="http://www.w3.org/2000/svg">
<path d="M11.4355 10.2845L11.1295 10.6357L11.4582 10.9658L15.4024 14.9263C15.4024 14.9263 15.4024 14.9263 15.4025 14.9263C15.5358 15.0602 15.5324 15.2684 15.3923 15.3986L15.3922 15.3987C15.3235 15.4625 15.2309 15.5 15.1278 15.5C15.0187 15.5 14.9234 15.4593 14.8529 15.3886C14.8529 15.3886 14.8528 15.3885 14.8528 15.3885L10.8788 11.3982L10.5866 11.1047L10.2438 11.3373C9.19931 12.0459 7.97745 12.42 6.69113 12.42C3.26113 12.42 0.5 9.72941 0.5 6.45999C0.5 3.19057 3.26113 0.5 6.69113 0.5C10.1211 0.5 12.8823 3.19057 12.8823 6.45999C12.8823 7.86142 12.3719 9.20977 11.4355 10.2845ZM12.1367 6.45999C12.1367 3.53456 9.67763 1.18522 6.69113 1.18522C3.70463 1.18522 1.24551 3.53456 1.24551 6.45999C1.24551 9.38543 3.70463 11.7348 6.69113 11.7348C9.67763 11.7348 12.1367 9.38543 12.1367 6.45999Z" fill="#9C9898" stroke="#9C9898"/>
</svg>
